/* XPM */
static char *activateR_xpm[] = {
/* columns rows colors chars-per-pixel */
"96 32 137 2",
"   c #FF0000",
".  c #FE0F00",
"X  c #FE0A0A",
"o  c #FD1D00",
"O  c #E51F1F",
"+  c #F61414",
"@  c #FC1616",
"#  c #F31D1D",
"$  c #FD1A1A",
"%  c #FD2C00",
"&  c #FC3A00",
"*  c #DC3636",
"=  c #DC3C3C",
"-  c #EC2727",
";  c #EE2C2C",
":  c #F42525",
">  c #FA2424",
",  c #F32B2B",
"<  c #FC2929",
"1  c #E33333",
"2  c #E93434",
"3  c #E13E3E",
"4  c #EC3939",
"5  c #F53333",
"6  c #FA3434",
"7  c #F03A3A",
"8  c #FF3C3C",
"9  c #FB4900",
"0  c #FA5800",
"q  c #F96600",
"w  c #F97400",
"e  c #B67474",
"r  c #BF7E7E",
"t  c #D74747",
"y  c #D35252",
"u  c #D85555",
"i  c #DB5A5A",
"p  c #E94646",
"a  c #E14E4E",
"s  c #EC4949",
"d  c #F54242",
"f  c #FD4747",
"g  c #F54F4F",
"h  c #FF4A4A",
"j  c #E45252",
"k  c #E95656",
"l  c #F15050",
"z  c #FB5555",
"x  c #F15E5E",
"c  c #FF5A5A",
"v  c #C46464",
"b  c #CC6C6C",
"n  c #D26060",
"m  c #C07E7E",
"M  c #CD7B7B",
"N  c #D17171",
"B  c #D07D7D",
"V  c #DB7B7B",
"C  c #E46161",
"Z  c #ED6A6A",
"A  c #F76464",
"S  c #F06D6D",
"D  c #FF6E6E",
"F  c #E67575",
"G  c #E87777",
"H  c #F77474",
"J  c #FF7E7E",
"K  c #F88300",
"L  c #F79100",
"P  c #F6A000",
"I  c #F5AF00",
"U  c #F4BD00",
"Y  c #F4CC00",
"T  c #F3DA00",
"R  c #F2E900",
"E  c #B48484",
"W  c #BF8D8D",
"Q  c #AD9C9C",
"!  c #BB9C9C",
"~  c gray65",
"^  c #ADADAD",
"/  c #B4A3A3",
"(  c #B8A7A7",
")  c #B2AEAE",
"_  c #BEAAAA",
"`  c #B3B3B3",
"'  c #BBBBBB",
"]  c #C48383",
"[  c #CA8787",
"{  c #CB8A8A",
"}  c #D98686",
"|  c #C19D9D",
" . c #D39292",
".. c #D99696",
"X. c #DC9A9A",
"o. c #E98686",
"O. c #FF8C8C",
"+. c #E69393",
"@. c #FF9E9E",
"#. c #C5A7A7",
"$. c #CAA9A9",
"%. c #D6A4A4",
"&. c #C2BEBE",
"*. c #CEBABA",
"=. c #D1B0B0",
"-. c #E7A6A6",
";. c #E8A7A7",
":. c #ECABAB",
">. c #F4A3A3",
",. c #F9A6A6",
"<. c #FFACAC",
"1. c #EBBBBB",
"2. c #FAB7B7",
"3. c #FFBCBC",
"4. c #C4C4C4",
"5. c #CAC6C6",
"6. c #CBCBCB",
"7. c #D6C5C5",
"8. c #DAC9C9",
"9. c #D4D4D4",
"0. c #DBDBDB",
"q. c #E7CBCB",
"w. c #EECDCD",
"e. c #F6C6C6",
"r. c #FECCCC",
"t. c #E7D6D6",
"y. c #E2DEDE",
"u. c #EDDBDB",
"i. c #FFD3D3",
"p. c #FEDBDB",
"a. c #E5E5E5",
"s. c #EBE7E7",
"d. c #EBEBEB",
"f. c #FFE3E3",
"g. c #FDEAEA",
"h. c #F4F4F4",
"j. c #FEFEFE",
/* pixels */
"j.j.j.j.j.j.j.j.j.j.j.j.j.j.j.j.j.j.j.j.j.j.j.j.j.j.j.j.j.j.j.j.j.j.j.j.j.j.j.j.j.j.j.j.j.j.j.j.j.j.j.j.j.j.j.j.j.j.j.j.j.j.j.j.j.j.j.j.j.j.j.j.j.j.j.j.j.j.j.j.j.j.j.j.j.j.j.j.j.j.j.j.j.j.j.j.",
"j.j.j.j.j.j.j.j.j.j.j.j.j.j.j.j.j.j.j.j.j.j.j.j.j.j.j.j.j.j.j.j.j.j.j.j.j.j.j.j.j.j.j.j.j.j.j.j.j.j.j.j.j.j.j.j.j.j.j.j.j.j.j.j.j.j.j.j.j.j.j.j.j.j.j.j.j.j.j.j.j.j.j.j.j.j.j.j.j.j.j.j.j.j.j.j.",
"j.j.j.j.j.j.j.j.j.j.j.j.j.j.j.j.j.j.j.j.j.j.j.j.j.j.j.j.j.j.j.j.j.j.j.j.j.j.j.j.j.j.j.j.j.j.j.j.j.j.j.j.j.j.j.j.j.j.j.j.j.j.j.j.j.j.j.j.j.j.j.j.j.j.j.j.j.j.j.j.j.j.j.j.j.j.j.j.j.j.j.j.j.j.j.j.",
"j.j.j.j.j.j.j.j.j.j.j.j.j.j.j.j.j.j.j.j.j.j.j.j.j.j.j.j.j.j.j.j.j.j.j.j.j.j.j.j.j.j.j.j.j.j.j.j.j.j.j.j.j.j.j.j.j.j.j.j.j.j.j.j.j.j.j.j.j.j.j.j.j.j.j.j.j.j.j.j.j.j.j.j.j.j.j.j.j.j.j.j.j.j.j.j.",
"j.j.j.j.j.j.j.j.j.j.j.j.j.j.j.j.j.j.j.j.j.j.j.j.j.j.j.j.j.j.j.j.j.j.j.j.j.j.j.j.j.j.j.j.j.j.j.j.j.j.j.j.j.j.j.j.j.j.j.j.j.j.j.j.j.j.j.j.j.j.j.j.j.j.j.j.j.j.j.j.j.j.j.j.j.j.j.j.j.j.j.j.j.j.j.j.",
"j.j.j.j.j.j.j.j.j.j.j.j.j.j.j.j.j.j.j.j.j.j.j.j.j.j.j.j.j.j.j.j.j.j.j.j.j.j.j.j.j.j.j.j.j.j.j.j.j.j.j.j.j.j.j.j.j.j.j.j.j.j.j.j.j.j.j.j.j.j.j.j.j.j.j.j.j.j.j.j.j.j.j.j.j.j.j.j.j.j.j.j.j.j.j.j.",
"j.j.j.j.j.j.j.j.j.j.j.j.j.j.j.j.j.j.j.j.j.j.j.j.j.j.j.j.j.j.j.j.j.j.j.j.j.j.j.j.j.j.j.j.j.j.j.j.j.j.j.j.j.j.j.j.j.j.j.j.j.j.j.j.j.j.j.j.j.j.j.j.j.j.j.j.j.j.j.j.j.j.j.j.j.j.j.j.j.j.j.j.j.j.j.j.",
"j.j.j.j.j.j.j.j.j.j.<.D <.j.j.j.j.j.j.j.j.g.<.D d 8 d J 3.p.,.J J J J J J J J O.J J @.p.2.O.,.p.3.O.J 2.j.j.j.j.j.j.2.J O.3.j.j.p.@.3.j.j.3.J O.O.J J J J J J J J O.3.2.J J J O.J J J J O.3.j.j.",
"j.j.j.j.j.j.j.j.j.c       <.j.j.j.j.j.g.c $               X                           X       X         8 j.j.j.j.f         c p.X     < f                                                   3.j.",
"j.j.j.j.j.j.j.j.@.  . K   8 j.j.j.j.i.$     9 K I I I w o   0 w w w w w w w w w w w 0   & w 0     w w %   3.j.j.J   o w w .   8   0 &     o w w w w w w w w w w w w o o w w w w w w w w w   J j.",
"j.j.j.j.j.j.j.f.$   L R .   g.j.j.i.X   9 Y R R I I Y T     Y R R R R R R R R R R R w   I R K     I R w   J j.r.    I R K   z   % T K     0 R R R R R R R R R R R R   w R R R R R R R R I   8 h.",
"j.j.j.j.j.j.j.h   9 R R 9   ,.h.p.X   0 R R w .       %             o R R %             T R 0     w R I   6 h.f   q R T .       U R U   X           L R P             P R q                 H h.",
"j.j.j.j.j.j.O.  . T R R K   A h.h   0 R R 0     5 7 $   5 l $       9 R R             o R R %     9 R R     H   o T R 9   6   w R R R .   6         U R w             Y R &             5 S a.h.",
"j.j.j.j.j.r.    P R 0 R U   < 1.  . T R w   X ..4.4.6.%.9.9.0.y.Z   w R I   ; ' ' V   0 R T   X   . R R &   @   I R P   @   % R U K R 9   +.0.0.    R R &   [ ' $.  o R R              .6.0.y.d.",
"j.j.j.j.j.f   q R P   T R .   Z   q R Y      .' ' ' 4.4.6.9.0.0.5   I R K   t ^ ` j   K R I   ; :   U R q     9 R T .     . Y R % q R K   k 9.-.  & R R .   Q ^ B   9 R T w w w w w   C 6.9.0.d.",
"j.j.j.j.J   o T T .   I R 9   5   I R K   p ' ' &.4.6.0.0.0.y.y.X   T R 0   v ^ ' :   U R w   i a   K R P   . T R 0   #   K R w   & R U   : 6.G   q R Y   + ~ ` j   K R R R R R R I   5 9.0.a.h.",
"j.j.j.3.    I R 9     w R K       R R &   M ` ' 4.6.0.y.a.a.d.w.  % R R %   E ` &.    R R &   m N   0 R T   P R I   X   & R U       R R .   *.k   L R L   1 ~ ` ;   I R 0             Z 0.y.d.h.",
"j.j.j.8   w R P       0 R U       R R &   ] ` &.6.0.t.d.d.h.d.>.  9 R R     ~ `  .  & R R .   / |   o R R w R T o     o T R %       Y R 9   } <   U R w   y ^ 4.    R R %         ; C 6.0.a.h.h.",
"j.j.D   % R R U I I I U R R .     R R 0   u ' 6.o.z   z h.j.j.J   w R I   - ^ 4.F   q R Y   + ` ' +   Y R R R q   +   L R T I I I I T R K   j     R R 9   m ' %.  % R R     e e r { =.0.a.d.h.j.",
"j.<.    U R K w w w w w R R 9     P R I             .   3.j.j.8   I R K   t ' 6.d   P R L   3 ` 4.s   L R R I       9 R U w w w w w I R U   :   & R R .   / 4.G   q R I               d d.h.h.j.",
"j.<   K R P             U R K     & R R P %     & L w   J j.j.@   T R 0   b ' 6.$   Y R q   n ' 6.F   q R R %     o T R %           9 R R .     q R Y   + ` 4.k   L R P & & & & & & o   w.h.j.j.",
"3.  & R T .   i u y =   L R U   #   9 T R R R R R T %   2.j.p.  o R R %   { &.7.  . R R %   W ' 8.=.  % R w   O   I R w   - y y y   o R R 9     L R P   2 ` 4.<   U R R R R R R R R 9   >.h.h.j.",
"i.  % & o   4 ^ ~ ~ v   o & &   t +     9 w w w & .   6 d.h.g.  . & &   - ` 4.8.  . & &   - ` 4.9.a.5   &       . & &     m ~ ~ ~ -   & & o     % & o   n ' 6.x   & & & & & & & & & .   u.h.h.j.",
"j.8       4 #.` ^ ` ` 2       # ^ ! 1 X             d q.d.h.h.c       # ! ' 6.0.z       # ! ' 6.0.a.1.>   # e *       # [ ` ^ ` ) ! #       2 ,       2 ' &.9.a.>                     g d.h.h.j.",
"j.j.e.:.q.6.&.' ' 4.6.4.#.[ ] ) ` ' ' _ M u i i { 5.9.0.a.d.h.h.u.;.X.&.' 4.9.a.d.u.;.X.&.' 4.9.a.d.d.y.X.' ^ ^ ( {  .4.' ' ' 4.4.4.4.{ ] ! ` 4.%. .$.' ' 6.0.a.d.;.X.{ ] E ] [  .X.8.0.d.h.j.j.",
"j.j.h.s.0.9.6.6.6.9.0.0.9.4.4.&.4.6.6.4.4.' ' ' &.4.6.0.a.d.h.h.d.a.0.6.6.9.0.a.h.d.a.0.6.6.6.0.a.h.h.d.0.6.4.4.4.6.6.6.6.6.6.9.0.0.9.6.4.4.4.6.6.6.6.4.6.0.a.h.h.a.0.4.' ) ` ` ' 6.6.0.a.d.h.h.",
"j.j.h.d.a.0.0.0.a.a.a.a.a.0.9.9.9.0.0.9.9.6.4.6.6.6.9.0.a.h.h.j.h.d.a.0.0.0.d.h.h.h.d.a.0.0.0.s.h.h.h.d.s.0.9.0.0.0.y.0.9.0.0.a.d.d.a.0.0.9.9.0.0.0.0.0.0.a.d.h.h.d.a.9.6.4.4.5.6.6.0.0.s.h.h.j.",
"j.j.j.h.d.d.a.d.d.h.j.h.h.d.a.a.a.s.d.s.a.0.0.9.9.0.y.s.h.h.h.h.j.h.d.a.a.d.h.h.j.h.h.d.d.s.d.h.h.j.j.j.h.d.d.a.d.d.d.d.d.d.d.h.h.h.h.d.d.a.a.a.s.a.a.a.d.h.h.h.h.h.d.a.0.0.0.9.0.0.a.a.d.h.j.j.",
"j.j.j.h.h.h.h.h.h.j.j.j.j.h.h.h.h.h.h.h.d.d.a.a.a.a.d.h.h.h.j.j.j.h.h.h.h.h.h.j.j.j.h.h.h.h.h.h.j.j.j.j.j.h.h.h.h.h.h.h.h.h.h.j.j.j.j.h.h.h.h.h.h.h.h.h.h.h.h.j.j.h.h.h.d.a.a.s.a.a.d.d.h.h.j.j.",
"j.j.j.j.h.j.j.j.j.j.j.j.j.j.h.j.h.j.j.j.h.j.h.h.h.h.h.h.j.j.j.j.j.j.j.h.j.j.j.j.j.j.j.j.h.j.j.j.j.j.j.j.j.j.j.j.j.h.j.j.h.j.j.j.j.j.j.j.j.j.h.h.h.j.j.h.j.j.j.j.j.j.j.h.h.h.h.h.h.h.h.j.j.j.j.j.",
"j.j.j.j.j.j.j.j.j.j.j.j.j.j.j.j.j.j.j.j.j.j.j.j.j.j.j.j.j.j.j.j.j.j.j.j.j.j.j.j.j.j.j.j.j.j.j.j.j.j.j.j.j.j.j.j.j.j.j.j.j.j.j.j.j.j.j.j.j.j.j.j.j.j.j.j.j.j.j.j.j.j.j.j.j.j.j.j.j.j.j.j.j.j.j.j.",
"j.j.j.j.j.j.j.j.j.j.j.j.j.j.j.j.j.j.j.j.j.j.j.j.j.j.j.j.j.j.j.j.j.j.j.j.j.j.j.j.j.j.j.j.j.j.j.j.j.j.j.j.j.j.j.j.j.j.j.j.j.j.j.j.j.j.j.j.j.j.j.j.j.j.j.j.j.j.j.j.j.j.j.j.j.j.j.j.j.j.j.j.j.j.j.j."
};
