/* XPM */
static char *activateG_xpm[] = {
/* columns rows colors chars-per-pixel */
"96 32 202 2",
"   c #81B90A",
".  c #87BC0A",
"X  c #82B90D",
"o  c #82BA0D",
"O  c #8EBF0B",
"+  c #82B615",
"@  c #83B615",
"#  c #85BA13",
"$  c #83B814",
"%  c #86BA16",
"&  c #85B71B",
"*  c #89BD19",
"=  c #89BA1F",
"-  c #89BB1F",
";  c #8BBE1D",
":  c #88B625",
">  c #88B626",
",  c #88B628",
"<  c #8BB928",
"1  c #8BB929",
"2  c #8BBA29",
"3  c #8CBA29",
"4  c #8CB631",
"5  c #8EB734",
"6  c #8FB934",
"7  c #90BA35",
"8  c #92BA3F",
"9  c #94C20B",
"0  c #9AC50C",
"q  c #A1C80C",
"w  c #A7CB0D",
"e  c #ADCE0D",
"r  c #B3D10D",
"t  c #BAD40E",
"y  c #8FC125",
"u  c #91C229",
"i  c #97C534",
"p  c #96C13B",
"a  c #98C23D",
"s  c #9BC73C",
"d  c #C0D70E",
"f  c #C6DA0F",
"g  c #CDDD0F",
"h  c #D3E010",
"j  c #D9E310",
"k  c #E0E611",
"l  c #E6E911",
"z  c #91B742",
"x  c #91B04F",
"c  c #9ABF4A",
"v  c #98BC4C",
"b  c #94B353",
"n  c #95B454",
"m  c #97B25B",
"M  c #99B45D",
"N  c #9CBA5A",
"B  c #9BB85E",
"V  c #9BB06C",
"C  c #97A47B",
"Z  c #9CAC78",
"A  c #9CB072",
"S  c #A0BD63",
"D  c #A1B96F",
"F  c #A1B577",
"G  c #A2B678",
"H  c #A7BB7D",
"J  c #A9BF7B",
"K  c #9CC741",
"L  c #99C045",
"P  c #9FC944",
"I  c #A1CB47",
"U  c #A3CC4B",
"Y  c #A9CF57",
"T  c #AED262",
"R  c #B0D366",
"E  c #ACC870",
"W  c #AECB71",
"Q  c #ACC27E",
"!  c #BAD978",
"~  c #9F9F9F",
"^  c #A1AF83",
"/  c #A2B380",
"(  c #A2B084",
")  c #A9BB82",
"_  c #A6B589",
"`  c #A7B48B",
"'  c #A3A997",
"]  c #ABB695",
"[  c #A0A0A0",
"{  c gray64",
"}  c #A4A4A4",
"|  c #A7A7A7",
" . c #A9A9A9",
".. c #AAAAAA",
"X. c #ACACAC",
"o. c gray68",
"O. c #AEAEAE",
"+. c #AFAFAF",
"@. c #B4B7AC",
"#. c gray69",
"$. c #B1B1B1",
"%. c #B2B2B2",
"&. c gray70",
"*. c #B4B4B4",
"=. c gray71",
"-. c #B6B6B6",
";. c #B7B7B7",
":. c gray72",
">. c #B9B9B9",
",. c gray73",
"<. c #BBBBBB",
"1. c #BCBCBC",
"2. c gray74",
"3. c gray",
"4. c gray75",
"5. c #B2C38F",
"6. c #BEDB81",
"7. c #B7C39F",
"8. c #C2DD88",
"9. c #C6DF91",
"0. c #CAE197",
"q. c #CEE4A0",
"w. c #D0E5A3",
"e. c #D2E6A7",
"r. c #D2E6A8",
"t. c #D7E9B2",
"y. c #D9EAB6",
"u. c #D8E6BA",
"i. c #DCEABF",
"p. c #C0C0C0",
"a. c #C1C1C1",
"s. c gray76",
"d. c #C3C3C3",
"f. c #C6C6C6",
"g. c #C7CBC0",
"h. c #C8C8C8",
"j. c gray79",
"k. c #CACACA",
"l. c #CBCBCB",
"z. c gray80",
"x. c #CDCDCD",
"c. c #CECECE",
"v. c gray81",
"b. c #CDD0C5",
"n. c #D0D0D0",
"m. c gray82",
"M. c #D2D2D2",
"N. c LightGray",
"B. c gray83",
"V. c #D5D5D5",
"C. c gray84",
"Z. c #D7D7D7",
"A. c #D8D8D8",
"S. c #DADADA",
"D. c gray86",
"F. c gainsboro",
"G. c #DDDDDD",
"H. c gray87",
"J. c #DFDFDF",
"K. c #DFEDC2",
"L. c #DFE6D1",
"P. c #E1EFC5",
"I. c #E2EFC7",
"U. c #E5F1CD",
"Y. c #E7F2D1",
"T. c #EDF5DC",
"R. c #EEF5DF",
"E. c gray88",
"W. c #E1E1E1",
"Q. c #E2E2E2",
"!. c gray89",
"~. c #E4E4E4",
"^. c gray90",
"/. c #E6E6E6",
"(. c #E7E7E7",
"). c gray91",
"_. c #E9E9E9",
"`. c #EAEAEA",
"'. c gray92",
"]. c #ECECEC",
"[. c gray93",
"{. c #EEEEEE",
"}. c #EFEFEF",
"|. c #EFF6E0",
" X c #F2F8E6",
".X c gray94",
"XX c #F1F1F1",
"oX c gray95",
"OX c #F3F3F3",
"+X c #F4F4F4",
"@X c gray96",
"#X c #F6F6F6",
"$X c gray97",
"%X c #F8F8F8",
"&X c #F9F9F9",
"*X c gray98",
"=X c #FBFBFB",
"-X c #FDFEFB",
";X c gray99",
":X c #FDFDFD",
">X c #FEFEFE",
",X c gray100",
/* pixels */
",X,X,X,X,X,X,X,X,X,X,X,X,X,X,X,X,X,X,X,X,X,X,X,X,X,X,X,X,X,X,X,X,X,X,X,X,X,X,X,X,X,X,X,X,X,X,X,X,X,X,X,X,X,X,X,X,X,X,X,X,X,X,X,X,X,X,X,X,X,X,X,X,X,X,X,X,X,X,X,X,X,X,X,X,X,X,X,X,X,X,X,X,X,X,X,X",
",X,X,X,X,X,X,X,X,X,X,X,X,X,X,X,X,X,X,X,X,X,X,X,X,X,X,X,X,X,X,X,X,X,X,X,X,X,X,X,X,X,X,X,X,X,X,X,X,X,X,X,X,X,X,X,X,X,X,X,X,X,X,X,X,X,X,X,X,X,X,X,X,X,X,X,X,X,X,X,X,X,X,X,X,X,X,X,X,X,X,X,X,X,X,X,X",
",X,X,X,X,X,X,X,X,X,X,X,X,X,X,X,X,X,X,X,X,X,X,X,X,X,X,X,X,X,X,X,X,X,X,X,X,X,X,X,X,X,X,X,X,X,X,X,X,X,X,X,X,X,X,X,X,X,X,X,X,X,X,X,X,X,X,X,X,X,X,X,X,X,X,X,X,X,X,X,X,X,X,X,X,X,X,X,X,X,X,X,X,X,X,X,X",
",X,X,X,X,X,X,X,X,X,X,X,X,X,X,X,X,X,X,X,X,X,X,X,X,X,X,X,X,X,X,X,X,X,X,X,X,X,X,X,X,X,X,X,X,X,X,X,X,X,X,X,X,X,X,X,X,X,X,X,X,X,X,X,X,X,X,X,X,X,X,X,X,X,X,X,X,X,X,X,X,X,X,X,X,X,X,X,X,X,X,X,X,X,X,X,X",
",X,X,X,X,X,X,X,X,X,X,X,X,X,X,X,X,X,X,X,X,X,X,X,X,X,X,X,X,X,X,X,X,X,X,X,X,X,X,X,X,X,X,X,X,X,X,X,X,X,X,X,X,X,X,X,X,X,X,X,X,X,X,X,X,X,X,X,X,X,X,X,X,X,X,X,X,X,X,X,X,X,X,X,X,X,X,X,X,X,X,X,X,X,X,X,X",
",X,X,X,X,X,X,X,X,X,X,X,X,X,X,X,X,X,X,X,X,X,X,X,X,X,X,X,X,X,X,X,X,X,X,X,X,X,X,X,X,X,X,X,X,X,X,X,X,X,X,X,X,X,X,X,X,X,X,X,X,X,X,X,X,X,X,X,X,X,X,X,X,X,X,X,X,X,X,X,X,X,X,X,X,X,X,X,X,X,X,X,X,X,X,X,X",
",X,X,X,X,X,X,X,X,X,X,X,X,X,X,X,X,X,X,X,X,X,X,X,X,X,X,X,X,X,X,X,X,X,X,X,X,X,X,X,X,X,X,X,X,X,X,X,X,X,X,X,X,X,X,X,X,X,X,X,X,X,X,X,X,X,X,X,X,X,X,X,X,X,X,X,X,X,X,X,X,X,X,X,X,X,X,X,X,X,X,X,X,X,X,X,X",
",X,X,X,X,X,X,X,X,X,X,X,X,X,X,X,X,X,X,X,X,X,X,Xq.P       * I 6.U.,X,X,X,Xq.R I I I I I I I I 6. X,X X6.I 6. X,X,X,X X6.I 6. X,X,X,X,X,X0.T u     u T 0.,X,X,X,X,X,X,X,X,X,X,X,X,X,X,X,X,X,X,X,X,X",
",X,X,X,X,X,X,X,X,X,X,X,X,X,X,X,X,X,X,X,X,X,Xs                   y y.,Xs                         8.;       ; P.,Xy.;       ;  X,X,X0.                  y y.,X,X,X,X,X,X,X,X,X,X,X,X,X,X,X,X,X,X,X",
",X,X,X,X,X,X,X,X,X,X,X,X,X,X,X,X,X,X,X,X,Xq.                        !                                       i  X;           6.,XU                         e.,X,X,X,X,X,X,X,X,X,X,X,X,X,X,X,X,X,X",
",X,X,X,X,X,X,X,X,X,X,X,X,X,X,X,X,X,X,X,X,XP     d l l l k g e O           d g g g g g g g g q       O g .     6.    O g     P s       0 d j l l j d O       P.,X,X,X,X,X,X,X,X,X,X,X,X,X,X,X,X,X",
",X,X,X,X,X,X,X,X,X,X,X,X,X,X,X,X,X,X,X,X-X      l l d r d j l k w         l l g g g g g g g 9       t l 0           g l             t l l f r t j l k 9     T ,X,X,X,X,X,X,X,X,X,X,X,X,X,X,X,X,X",
",X,X,X,X,X,X,X,X,X,X,X,X,X,X,X,X,X,X,X,XK.    0 l h         r l l 0     0 l j                     . k l r         0 l l           d l h 9         f l j     y ,X,X,X,X,X,X,X,X,X,X,X,X,X,X,X,X,X",
",X,X,X,X,X,X,X,X,X,X,X,X,X,X,X,X,X,X,X,X9.    e l d           d l f     e l f                     w l l f         j l l O       w l k O           9 l l O     T.,X,X,X,X,X,X,X,X,X,X,X,X,X,X,X,X",
",X,X,X,X,X,X,X,X,X,X,X,X,X,X,X,X,X,X,X,XY     f l e     c     0 l l     f l r                     j l l j       e l l l 0       j l r     X W       l l 0     i.,X,X,X,X,X,X,X,X,X,X,X,X,X,X,X,X",
",X,X,X,X,X,X,X,X,X,X,X,X,X,X,X,X,X,X,X,Xy     j l 0     _     0 l l     j l h g g g g q         0 l h j l .   . k k h l 0     q l k       5.4.      l l 0     u.,X,X,X,X,X,X,X,X,X,X,X,X,X,X,X,X",
",X,X,X,X,X,X,X,X,X,X,X,X,X,X,X,X,X,X,X|.    O l l       V     w l j   9 l l g g g g g 9         f l w f l q   t l w g l 0     t l f     2 =.]     9 l l O     L.%X,X,X,X,X,X,X,X,X,X,X,X,X,X,X,X",
",X,X,X,X,X,X,X,X,X,X,X,X,X,X,X,X,X,X,Xt.    q l h     , X     d l f   q l h                   9 l k . r l r O l g   g l 0     g l r     M %.N     w l j     - !.@X,X,X,X,X,X,X,X,X,X,X,X,X,X,X,X",
",X,X,X,X,X,X,X,X,X,X,X,X,X,X,X,X,X,X,X6.    r l d           9 l l w   r l t             #     t l d   0 l g g l O   g l 0     g l r     m D       g l t     v J..X,X,X,X,X,X,X,X,X,X,X,X,X,X,X,X",
",X,X,X,X,X,X,X,X,X,X,X,X,X,X,X,X,X,X,XP     g l w         . h l h     g l e                 . k l O   . l k l r     g l q     d l f             w l k O     ) A..X,X,X,X,X,X,X,X,X,X,X,X,X,X,X,X",
",X,X,X,X,X,X,X,X,X,X,X,X,X,X,X,X,X,X,X      l l 9       0 h l h       l l 0                 w l g       h l j .     g l r     w l l O         0 k l w     & 4.B..X,X,X,X,X,X,X,X,X,X,X,X,X,X,X,X",
",X,X,X,X,X,X,X,X,X,X,X,X,X,X,X,X,X,XY.    9 l l r r t j l l t .     9 l l r r r r r r r     j l w       d l q       g l r       g l j w 0 q d l l w       Z 4.A..X,X,X,X,X,X,X,X,X,X,X,X,X,X,X,X",
",X,X,X,X,X,X,X,X,X,X,X,X,X,X,X,X,X,Xw.    w l l l l k g e O         w l l l l l l l l g   0 l k         e g         g l r       . d l l l l k d O       x o.f.E.@X,X,X,X,X,X,X,X,X,X,X,X,X,X,X,X",
",X,X,X,X,X,X,X,X,X,X,X,X,X,X,X,X,X,XT.                                                                  . .                         . 0 0 9           b | =.n.'.@X,X,X,X,X,X,X,X,X,X,X,X,X,X,X,X",
",X,X,X,X,X,X,X,X,X,X,X,X,X,X,X,X,X,X,X!                     - H n                                   >         @ @           z 3                   - F  .o.d.J.}.,X,X,X,X,X,X,X,X,X,X,X,X,X,X,X,X",
",X,X,X,X,X,X,X,X,X,X,X,X,X,X,X,X,X,X,X,Xr.K         $ 6 S 7.4.%.@.G 5 X               p W a o $ z / _ 2     : C ' B 7   4 A =.d.J 2         # L Q ,.%.%.4.B.~.@X,X,X,X,X,X,X,X,X,X,X,X,X,X,X,X,X",
",X,X,X,X,X,X,X,X,X,X,X,X,X,X,X,X,X,X,X,X,X.XW.f.o.[ } o.=.,.=.=.<.h.c.l.<. .~ { o.,.d.h.x.B.B.x.4.;.d.x.b.g.4.=.4.k.x.k.4.=.d.k.n.k.@.^ ( ] 4.4.,.=.=.d.n.~..X,X,X,X,X,X,X,X,X,X,X,X,X,X,X,X,X,X",
",X,X,X,X,X,X,X,X,X,X,X,X,X,X,X,X,X,X,X,X,X@X~.n.,.o.o.&.,.4.d.k.B.G.Q.D.l.,.o.o.%.:.4.f.x.n.B.n.h.h.n.J.W.J.n.x.B.J.J.B.k.f.x.A.W.A.k.4.=.=.:.,.4.4.k.B.~..X%X,X,X,X,X,X,X,X,X,X,X,X,X,X,X,X,X,X",
",X,X,X,X,X,X,X,X,X,X,X,X,X,X,X,X,X,X,X,X,X%X}.W.B.l.k.k.v.B.A.J.'..X.X}.W.B.l.k.k.x.n.B.A.J.W.W.J.J.~.}..X}.~.~.'.}.}.'.W.J.W.'.}.'.J.n.x.f.k.k.x.B.W.'..X%X,X,X,X,X,X,X,X,X,X,X,X,X,X,X,X,X,X,X",
",X,X,X,X,X,X,X,X,X,X,X,X,X,X,X,X,X,X,X,X,X,X%X.X).!.W.W.W.).'..X@X%X%X@X.X).!.W.E.W.W.~.'.].}.}.].}.OX@X@X@X@X.X@X%X@X@X}.}..XOX%X@X.X'.W.J.J.W.W.'..X@X%X,X,X,X,X,X,X,X,X,X,X,X,X,X,X,X,X,X,X,X",
",X,X,X,X,X,X,X,X,X,X,X,X,X,X,X,X,X,X,X,X,X,X%X%X$X@X@X@X@X%X%X,X,X,X,X;X%X@X@X@X+X+X+X@X@X%X%X%X%X%X-X,X,X,X,X%X,X%X,X%X,X%X%X,X,X,X%X%X@X.X}..X@X%X%X,X,X,X,X,X,X,X,X,X,X,X,X,X,X,X,X,X,X,X,X,X",
",X,X,X,X,X,X,X,X,X,X,X,X,X,X,X,X,X,X,X,X,X,X,X,X,X,X,X,X,X,X,X,X,X,X,X,X,X,X,X,X,X,X,X,X,X,X,X,X,X,X,X,X,X,X,X,X,X,X,X,X,X,X,X,X,X,X,X,X,X,X,X,X,X,X,X,X,X,X,X,X,X,X,X,X,X,X,X,X,X,X,X,X,X,X,X,X"
};
