/* XPM */
static char *addfold_xpm[] = {
/* columns rows colors chars-per-pixel */
"32 32 161 2",
"   c black",
".  c #1B1B1B",
"X  c #262626",
"o  c #2C2C2C",
"O  c #333333",
"+  c #393937",
"@  c #363738",
"#  c #3D454B",
"$  c #3E484E",
"%  c #3F4A50",
"&  c #53564C",
"*  c #5E5D48",
"=  c #404B51",
"-  c #465052",
";  c #4E5557",
":  c #47555D",
">  c #605F4D",
",  c #71705D",
"<  c #5E6566",
"1  c #54656F",
"2  c #586973",
"3  c #686C6F",
"4  c #636F71",
"5  c gray46",
"6  c #7A7B7D",
"7  c #7E8178",
"8  c #81826E",
"9  c #89886D",
"0  c #979560",
"q  c #9C9A66",
"w  c #98966E",
"e  c #9D9B69",
"r  c #8B8A76",
"t  c #9D9B72",
"y  c #9B9A7B",
"u  c #A09F7B",
"i  c #A9A775",
"p  c #B3B074",
"a  c #C1BE7A",
"s  c #237C8D",
"d  c #5C7788",
"f  c #5E7A8B",
"g  c #627886",
"h  c #617D8F",
"j  c #617E90",
"k  c #7E8384",
"l  c #648194",
"z  c #6C8493",
"x  c #68879A",
"c  c #7693A5",
"v  c #57A4B3",
"b  c #858A8A",
"n  c #8F8F8A",
"m  c #8D928E",
"M  c #9C9B82",
"N  c #969B92",
"B  c #9FA497",
"V  c #B7B585",
"C  c #B8B680",
"Z  c #BEBB84",
"A  c #BEBC8B",
"S  c #AAAE9C",
"D  c #B8B792",
"F  c #BEBC93",
"G  c #B2B499",
"H  c #BEBD9D",
"J  c #99AEB2",
"K  c #9DB0B3",
"L  c #B6BAA1",
"P  c #BEBDA2",
"I  c #BEBEAA",
"U  c #B2B2B0",
"Y  c #BBBBB4",
"T  c #BFBFBA",
"R  c #C0BE87",
"E  c #C0BE8B",
"W  c #BEC0A5",
"Q  c #C2C08A",
"!  c #D3D08D",
"~  c #CBC992",
"^  c #CBC99C",
"/  c #DFDC94",
"(  c #DFDC98",
")  c #E2DE92",
"_  c #C1C2A5",
"`  c #C5C7AD",
"'  c #C7C9AD",
"]  c #CCCEAE",
"[  c #D9D6A1",
"{  c #DFDDAE",
"}  c #C2C2B3",
"|  c #C7C9B4",
" . c #C5C7BC",
".. c #C6C9BC",
"X. c #C8CABB",
"o. c #D7D8B1",
"O. c #D8D6B9",
"+. c #E7E4A3",
"@. c #F2EFAA",
"#. c #F9F5A1",
"$. c #FEFAA3",
"%. c #FFFBAB",
"&. c #EEEBB2",
"*. c #E7E5BB",
"=. c #F7F4B0",
"-. c #FFFCB3",
";. c #FFFCBB",
":. c #84AAC2",
">. c #8BB5CE",
",. c #94BBC2",
"<. c #8DB7D0",
"1. c #8EB8D2",
"2. c #91BCD6",
"3. c #93BFD9",
"4. c #A8BDC1",
"5. c #9BC9D1",
"6. c #96C3DE",
"7. c #98C4E0",
"8. c #9AC8E4",
"9. c #C9CECF",
"0. c #CCD0D1",
"q. c #D1D3D4",
"w. c #DEE7D7",
"e. c #DEE9D6",
"r. c #D5E5DD",
"t. c #DDE7D8",
"y. c #DDEADB",
"u. c #EAEEC6",
"i. c #E5EDCE",
"p. c #E8EEC9",
"a. c #EDF3CE",
"s. c #FFFDC5",
"d. c #F1F5CB",
"f. c #FFFDCD",
"g. c #E0EAD5",
"h. c #E1ECDC",
"j. c #E6F0D4",
"k. c #E9F2D1",
"l. c #FFFDD4",
"z. c #FEFDDB",
"x. c #CBDEE9",
"c. c #CFE3EC",
"v. c #D2E5E4",
"b. c #DCEBE1",
"n. c #D2E5EC",
"m. c #D5E8EB",
"M. c #CAEEF9",
"N. c #D4F4FA",
"B. c #DAF7FF",
"V. c #DBF8FE",
"C. c #E5EDE1",
"Z. c gray92",
"A. c #FFFDE3",
"S. c #FFFEED",
"D. c #E2F8FE",
"F. c #EAFAFF",
"G. c #F0F3F5",
"H. c #FDFDF4",
"J. c #F3FCFE",
"K. c #FEFFFD",
"L. c None",
/* pixels */
"L.L.L.L.L.L.L.L.L.L.L.L.L.L.L.L.L.L.L.L.L.L.L.L.L.L.L.L.L.L.L.L.",
"L.L.L.L.L.L.L.L.O O O O O O O O O O O O o L.L.L.L.L.L.L.L.L.L.L.",
"L.L.L.L.L.L.L.L.O K.K.K.K.K.K.K.K.K.Z.O 3 X L.L.L.L.L.L.L.L.L.L.",
"L.L.L.L.L.L.L.L.O K.K.K.K.K.K.K.K.K.q.O G.< o L.L.L.L.L.L.L.L.L.",
"L.L.L.L.L.L.L.L.O K.J.K.J.K.J.K.K.K.9.O K.G.6 o L.L.L.L.L.L.L.L.",
"L.L.L.L.L.L.L.L.O K.J.J.K.K.K.K.K.K.0.O K.K.K.5 L.L.L.L.L.L.L.L.",
"L.L.L.L.L.L.L.L.O K.J.D.s s s s s s ,.O O O O O O L.L.L.L.L.L.L.",
"L.O O O O O O O O F.F.D.V.D.V.D.V.V.5.4 - ; ; < O L.L.L.L.L.L.L.",
"L.O 2.7.6.6.6.6.O F.V.B.s s s s s s v v v J K 4.O O O O L.L.L.L.",
"L.O 6.8.8.8.8.8.O D.B.B.B.B.B.B.B.B.B.B.B.B.N.B.O c c + L.L.L.L.",
"L.O 6.7.8.8.8.8.O B.M.z @ @ @ @ @ @ O @ @ @ O @ @ @ @ + O O + L.",
"L.O 6.2.z 2 2 2 2 1 : O U J.H.H.H.H.H.J.H.H.H.K.J.H.H.g c.x.+ L.",
"L.O >.x # n Y Y Y Y Y } K.K.K.H.K.H.K.H.H.K.H.H.H.H.K.k n.c.O L.",
"L.O >.d #  .H.H.H.H.H.H.H.H.H.H.H.H.H.H.H.H.H.H.H.H.H.b m.n.O L.",
"L.O >.f # Y S.S.S.S.S.S.S.S.H.S.S.S.S.H.S.H.H.S.S.S.S.m m.v.O L.",
"L.O >.f # I A.S.S.S.S.S.} X.X.X. . .X.X...} A.A.A.A.A.N y.r.O L.",
"L.O >.f # I z.A.A.A.A.A.X.C.h.h.y.b.h.C.C.| z.z.z.z.z.B y.y.O L.",
"L.O >.f # P l.l.z.z.A.A.| h.t.y.y.t.t.t.e.| z.l.l.l.l.S h.e.O L.",
"L.O <.f # H l.l.l.l.l.z.| h.g.g.e.e.e.e.6 O O O + r f.L k.g.O L.",
"L.O <.f $ F s.s.f.l.f.l._ ' ' ' ` ` P G O O.A.A.S.O f._ k.i.O L.",
"L.O <.j $ F s.s.s.f.f.f.f.l.f.f.f.l.*.D O M l.l.S.O f.] a.u.O L.",
"L.O 1.l % A -.;.;.s.s.s.s.s.s.s.s.s.o.i @ y l.l.A.+ s.o.a.u.O L.",
"L.O 1.l = A -.-.-.;.s.;.s.;.;.s.9 O O O O ^ f.s.A.O O O + 8 O L.",
"L.O 1.l % Z %.%.-.-.-.-.-.-.=.+.O [ f.f.;.&.s.s.z.z.f.f.A.O O L.",
"L.O <.j $ Z %.%.%.-.-.-.-.-.+.C O t ;.;.;.;.;.s.;.;.;.;.z.O O L.",
"L.O <.f # Z %.%.%.%.%.%.%.%.) e O t -.;.;.;.-.-.-.;.;.;.z.@ O L.",
"L.O :.d # Z $.%.$.%.%.%.%.%./ e O w E E V ~ %.-.;.@.A A ;.O O L.",
"L.O g : & ! #.#.#.#.#.#.#.#.) p * O O O O i %.%.;.O O O O > O L.",
"L.O O O O O O O O O O O O O O o o o o . O q $.$.l.O o O O O X L.",
"L.L.L.L.                                O e $.$.l.O         L.L.",
"L.L.L.L.L.                              O 0 a p #., .     L.L.L.",
"L.L.L.L.L.L.L.L.L.L.L.L.L.L.L.L.L.L.L.L.X O + O O o L.L.L.L.L.L."
};
