/* XPM */
static char *addfile_xpm[] = {
/* columns rows colors chars-per-pixel */
"32 32 102 2",
"   c black",
".  c gray12",
"X  c gray14",
"o  c #2D2D2D",
"O  c #333333",
"+  c #393935",
"@  c #393939",
"#  c #595838",
"$  c #6F6C32",
"%  c #706D33",
"&  c #414141",
"*  c #4E4E4E",
"=  c #52524F",
"-  c #5F5F49",
";  c #4C5154",
":  c #535353",
">  c #54595D",
",  c #5D5D5D",
"<  c #7C7A4F",
"1  c #71705D",
"2  c #5F6366",
"3  c #7C7E7F",
"4  c #827F3B",
"5  c #9B9646",
"6  c #9C9847",
"7  c #8E8C5A",
"8  c #A19C48",
"9  c #ABA74D",
"0  c #B1AC50",
"q  c #89886B",
"w  c #979561",
"e  c #9C9A66",
"r  c #98966E",
"t  c #9D9B6A",
"y  c #818077",
"u  c #8A8A74",
"i  c #84837A",
"p  c #9D9B72",
"a  c #9B9A7B",
"s  c #ADAA6F",
"d  c #A9A775",
"f  c #B7B579",
"g  c #C1BE7A",
"h  c #9C9B82",
"j  c #B7B585",
"k  c #B8B680",
"l  c #B8B68B",
"z  c #A3A295",
"x  c #B3B2A2",
"c  c #C0BE87",
"v  c #C0BE8B",
"b  c #C5C280",
"n  c #C2C08A",
"m  c #D8D58C",
"M  c #DDDA8F",
"N  c #CBC992",
"B  c #CBC99C",
"V  c #DFDC96",
"C  c #E6E396",
"Z  c #EFEB9C",
"A  c #F5F19F",
"S  c #D9D6A1",
"D  c #D8D6B9",
"F  c #E7E4A0",
"G  c #EFECA3",
"H  c #E7E4AF",
"J  c #EFECAC",
"K  c #F2EFAA",
"L  c #FEFAA4",
"P  c #FFFBAA",
"I  c #EFECB3",
"U  c #EFEDBB",
"Y  c #FFFCB2",
"T  c #FFFCBA",
"R  c #DCDBC4",
"E  c gray85",
"W  c #E1DFC8",
"Q  c #EFEDC3",
"!  c #E1E0CA",
"~  c #EFEDCC",
"^  c #FFFDC2",
"/  c #FFFCCB",
"(  c #E1E1D6",
")  c #E9E7D0",
"_  c #EFEED2",
"`  c #E1E1DA",
"'  c #EFEEDA",
"]  c #FFFDD3",
"[  c #F8F7DD",
"{  c #FFFDDB",
"}  c #D9E1E6",
"|  c #E6E6E2",
" . c #EFEEE3",
".. c #EDEEEB",
"X. c #FFFDE3",
"o. c #F0F0EF",
"O. c #FEFDEB",
"+. c #EFEFF0",
"@. c #F4F4F4",
"#. c #FFFFF4",
"$. c #FEFEFB",
"%. c None",
/* pixels */
"%.%.%.%.%.%.%.%.%.%.%.%.%.%.%.%.%.%.%.%.%.%.%.%.%.%.%.%.%.%.%.%.",
"%.%.%.%.O O O O O O O O O O O O O O O O O O %.%.%.%.%.%.%.%.%.%.",
"%.%.%.%.O $.$.$.$.$.$.$.$.$.$.$.$.$.$.$.& ; O %.%.%.%.%.%.%.%.%.",
"%.%.%.%.O +.$.$.$.$.$.$.$.$.$.$.$.$.$.@.@ } > O %.%.%.%.%.%.%.%.",
"%.%.%.%.O ..$.$.$.$.$.$.$.$.$.$.$.$.$.| @ $.} 2 O %.%.%.%.%.%.%.",
"%.%.%.%.O ..$.#.$.$.#.$.#.$.#.$.$.$.$.` @ $.$...3 @ %.%.%.%.%.%.",
"%.%.%.%.O  .#.#.#.#.#.#.#.$.#.#.#.#.#.` @ @.$.$.@., * %.%.%.%.%.",
"%.%.%.%.O  .#.#.#.O.#.#.#.#.#.O.#.#.#.( @ ..@.$.$.E : O %.%.%.%.",
"%.%.%.%.O  .O.O.0 0 0 0 0 0 0 0 0 0 0 6 + O O O @ @ : O %.%.%.%.",
"%.%.%.%.O ' O.O.O.O.O.O.O.O.O.O.O.O.O.! z i y y y i z o %.%.%.%.",
"%.%.%.%.O ' O.X.0 0 0 0 0 0 0 0 0 0 0 8 4 % % % z z x o %.%.%.%.",
"%.%.%.%.O _ X.X.X.X.X.X.X.X.X.X.X.X.X.[ ~ ! ! ! W W R O %.%.%.%.",
"%.%.%.%.O _ { X.0 0 0 0 0 0 0 0 0 0 0 0 0 0 0 0 X.{ ~ O %.%.%.%.",
"%.%.%.%.O ~ { { { { { { { { { { { { { { { { { { { { ~ O %.%.%.%.",
"%.%.%.%.O ~ ] ] 0 0 0 0 0 0 0 0 0 0 0 0 0 0 0 0 ] { ~ O %.%.%.%.",
"%.%.%.%.O ~ ] ] ] ] ] ] ] ] ] ] / ] ] ] ] ] / ] ] ] ~ O %.%.%.%.",
"%.%.%.%.O Q / / 0 0 0 0 0 0 0 0 0 0 0 0 0 0 0 0 / ] Q O %.%.%.%.",
"%.%.%.%.O U / / / / / / / / / / / / / / u O O O + u U O %.%.%.%.",
"%.%.%.%.O U / ^ 0 0 0 0 0 0 0 0 0 0 9 8 O D X.X.O.@ U O %.%.%.%.",
"%.%.%.%.O I ^ ^ ^ T ^ ^ T T ^ T ^ T H l O h [ ] O.O I O %.%.%.%.",
"%.%.%.%.O I T T 0 0 0 0 0 0 0 0 0 0 5 $ O a ] ] O.@ I O %.%.%.%.",
"%.%.%.%.O J T T T Y T T T T T T q + O O O B / / X.O O O O O %.%.",
"%.%.%.%.O J T Y 0 0 0 0 0 0 9 8 O S / / T I / ^ ] [ / / X.O %.%.",
"%.%.%.%.O G Y P Y Y Y Y T Y C k O p T T T T T ^ T T T T X.O %.%.",
"%.%.%.%.O G P P 0 0 0 0 0 0 5 % O p T T T T Y Y T T T T [ O %.%.",
"%.%.%.%.O G P P P P P P P P V t O r v v j N Y Y T K c v ^ O %.%.",
"%.%.%.%.O Z P P L P P L P P C f - O O O O d P P T O O O O O %.%.",
"%.%.%.%.O Z L L L L L L L L A V M M b w O t L L ] O m o %.%.%.%.",
"%.%.%.%.O s 7 7 7 7 7 7 7 7 7 7 7 7 < # O e A L ] O s O %.%.%.%.",
"%.%.%.%.o O O O O O O O O O O O O O o . O w g g L 1 O o %.%.%.%.",
"%.%.%.%.%.%.%.%.%.%.%.%.%.%.%.%.%.%.    X O O O O X %.%.%.%.%.%.",
"%.%.%.%.%.%.%.%.%.%.%.%.%.%.%.%.%.%.%.%.%.%.%.%.%.%.%.%.%.%.%.%."
};
