/* XPM */
static char *appicon_xpm[] = {
/* columns rows colors chars-per-pixel */
"16 16 110 2",
"   c #0E1419",
".  c #0F1C29",
"X  c #192530",
"o  c #16293D",
"O  c #1E2D3B",
"+  c #1F2D3B",
"@  c #182B3E",
"#  c #21303F",
"$  c #182E44",
"%  c #192F46",
"&  c #1D3145",
"*  c #1C344C",
"=  c #1D3954",
"-  c #1F3D5A",
";  c #1F3D5B",
":  c #223343",
">  c #243445",
",  c #253646",
"<  c #243C55",
"1  c #243D55",
"2  c #213D58",
"3  c #213F5E",
"4  c #2C4155",
"5  c #24405B",
"6  c #21405F",
"7  c #2E4459",
"8  c #2F465C",
"9  c #30465D",
"0  c #31485F",
"q  c #224364",
"w  c #244566",
"e  c #24486B",
"r  c #254A6F",
"t  c #294A6A",
"y  c #294A6B",
"u  c #284B6F",
"i  c #314C67",
"p  c #324E69",
"a  c #304E6D",
"s  c #304F6E",
"d  c #365069",
"f  c #31506F",
"g  c #274D73",
"h  c #294E74",
"j  c #2A5077",
"k  c #2A5178",
"l  c #305172",
"z  c #355370",
"x  c #355371",
"c  c #3C5A77",
"v  c #3D5A77",
"b  c #3D5A78",
"n  c #3D5B79",
"m  c #3B5C7C",
"M  c #3E5E7D",
"N  c #3F5E7D",
"B  c #405F7E",
"V  c #2B5681",
"C  c #2C5783",
"Z  c #2C5884",
"A  c #2D5A86",
"S  c #2D5B88",
"D  c #2E5C8A",
"F  c #306091",
"G  c #306192",
"H  c #316293",
"J  c #326598",
"K  c #336598",
"L  c #33669A",
"P  c #33679B",
"I  c #34679B",
"U  c #34689C",
"Y  c #34689D",
"T  c #416080",
"R  c #416181",
"E  c #416182",
"W  c #45688B",
"Q  c #496D90",
"!  c #4A6F95",
"~  c #4A7095",
"^  c #4B7095",
"/  c #4C7197",
"(  c #4B7298",
")  c #4F769C",
"_  c #4F769D",
"`  c #517AA2",
"'  c #547EA8",
"]  c #5680AB",
"[  c #5783AE",
"{  c #5884B0",
"}  c #5985B1",
"|  c #5985B2",
" . c #5986B2",
".. c #5A86B3",
"X. c #5A87B3",
"o. c #5A87B4",
"O. c #5C8AB7",
"+. c #5D8BB9",
"@. c #5D8CBA",
"#. c #6191C2",
"$. c #6293C4",
"%. c #6394C5",
"&. c #6699CC",
"*. c #6699CD",
"=. c #679ACE",
"-. c #689CD1",
";. c #689DD1",
":. c #699DD1",
">. c #699DD2",
",. c None",
/* pixels */
",.,.,.,.,.,.,.,.,.,.,.,.,.,.,.,.",
",.,.,.,.,.,.,.,.,.,.,.,.,.,.,.,.",
",.,.,.,.,.,.,.,.X ,.,.,.,.,.,.,.",
",.,.,.,.,.,.> ` O./ 7 ,.,.,.,.,.",
",.,.,.# n [ ) B Q %.$./ 9 ,.,.,.",
",.,.@ p { &.X.f 2 s ( @.W < ,.,.",
",.,.r A t x 5 A Y S * & j S % ,.",
",.% H I J C q 3 - 6 g H J Y g ,.",
",.o e H I I I 3 . D U I I V = ,.",
",.,.: l h H H < O k J A t i   ,.",
",.,.n %.Q l w m v s u m o.{ ,.,.",
",.,.d &.>.@.R ' R _ ! &.>.] ,.,.",
",.,.,.n { &.>.O.B >.>.#./ 4 ,.,.",
",.,.,.,.O v { { R #.! 7 ,.,.,.,.",
",.,.,.,.,.,.,.0 > 0 ,.,.,.,.,.,.",
",.,.,.,.,.,.,.,.,.,.,.,.,.,.,.,."
};
