/* XPM */
static char *cfgpzl_xpm[] = {
/* columns rows colors chars-per-pixel */
"32 32 256 2",
"   c #030202",
".  c #080807",
"X  c #060708",
"o  c #060809",
"O  c #0D0C0C",
"+  c #100F0E",
"@  c #090E11",
"#  c #0D1418",
"$  c #111212",
"%  c #14191C",
"&  c #1B1A1A",
"*  c #161718",
"=  c #201F1E",
"-  c #121D22",
";  c #1D2224",
":  c #17242B",
">  c #172630",
",  c #1C2930",
"<  c #17303F",
"1  c #242525",
"2  c #2A2B2C",
"3  c #262E33",
"4  c #2A3035",
"5  c #21333D",
"6  c #2C3439",
"7  c #2C383C",
"8  c #333434",
"9  c #323B3D",
"0  c #3A3B3B",
"q  c #2D3C44",
"w  c #263B49",
"e  c #363D41",
"r  c #2D424A",
"t  c #394243",
"y  c #354447",
"u  c #2B4453",
"i  c #2F4A57",
"p  c #364F57",
"a  c #37555D",
"s  c #164867",
"d  c #2E4D62",
"f  c #2F5369",
"g  c #35566A",
"h  c #3B5D6F",
"j  c #395A62",
"k  c #245D7A",
"l  c #2D5C7D",
"z  c #275A74",
"x  c #395D72",
"c  c #286073",
"v  c #276378",
"b  c #396574",
"n  c #35647A",
"m  c #434343",
"M  c #484848",
"N  c #464849",
"B  c #46595E",
"V  c #535656",
"C  c #525E62",
"Z  c #4E6268",
"A  c #546468",
"S  c #4C6870",
"D  c #466A76",
"F  c #516E75",
"G  c #6B6D6D",
"H  c #67767A",
"J  c #727D7F",
"K  c #186494",
"L  c #286087",
"P  c #286A83",
"I  c #2B6C8A",
"U  c #266688",
"Y  c #3D6E86",
"T  c #3D7386",
"R  c #3C7289",
"E  c #36718B",
"W  c #276997",
"Q  c #2F759A",
"!  c #1B75A5",
"~  c #1D7CBE",
"^  c #1773B8",
"/  c #2370A8",
"(  c #2076B5",
")  c #456D87",
"_  c #45738B",
"`  c #477487",
"'  c #597D84",
"]  c #497A96",
"[  c #1578C0",
"{  c #378499",
"}  c #398DA8",
"|  c #298AB8",
" . c #378DB8",
".. c #2F90B7",
"X. c #3494B6",
"o. c #4D8892",
"O. c #4D889E",
"+. c #548398",
"@. c #7D8789",
"#. c #798993",
"$. c #6D9199",
"%. c #5182A2",
"&. c #578BAE",
"*. c #5299AE",
"=. c #5798AB",
"-. c #439CB0",
";. c #5A96B9",
":. c #6D97AE",
">. c #6D98B0",
",. c #4DA7BA",
"<. c #58A7B7",
"1. c #5DA7BD",
"2. c #55AABC",
"3. c #7FA0A5",
"4. c #76A1AB",
"5. c #70A0B7",
"6. c #75AEB5",
"7. c #288DC0",
"8. c #2998CF",
"9. c #2D93C8",
"0. c #359BCA",
"q. c #379AC6",
"w. c #2796D0",
"e. c #2E97D0",
"r. c #2799DA",
"t. c #329FD5",
"y. c #39A5CD",
"u. c #2FA0D6",
"i. c #36A5D8",
"p. c #088CEE",
"a. c #0797FF",
"s. c #0798FF",
"d. c #0C9AFF",
"f. c #0993F8",
"g. c #129EFE",
"h. c #129AF5",
"j. c #2398E0",
"k. c #12A0FE",
"l. c #1CA4FE",
"z. c #26A4EA",
"x. c #32A6E2",
"c. c #3BB9EF",
"v. c #28A7FF",
"b. c #24ACFE",
"n. c #2EABFF",
"m. c #2BB4FF",
"M. c #2EB9FF",
"N. c #35B5F2",
"B. c #33BCFE",
"V. c #38BEFE",
"C. c #32B6FF",
"Z. c #5F9CC1",
"A. c #47B6D6",
"S. c #76B5C4",
"D. c #68A8D2",
"F. c #4BBCFF",
"G. c #40BDF1",
"H. c #52B7F1",
"J. c #61AFE4",
"K. c #72B8E4",
"L. c #76BFEE",
"P. c #70B5E3",
"I. c #3CC3FF",
"U. c #56C3DD",
"Y. c #72C3CE",
"T. c #63CFDF",
"R. c #4DC7ED",
"E. c #44C4F3",
"W. c #42C6FD",
"Q. c #44CAFF",
"!. c #4ACDFF",
"~. c #4DD1FF",
"^. c #52D6FE",
"/. c #56D9FF",
"(. c #5DDCFE",
"). c #6FC6E1",
"_. c #6DCFE9",
"`. c #71C6E3",
"'. c #76C1ED",
"]. c #74CFE8",
"[. c #7DC0E4",
"{. c #61D1E8",
"}. c #79C3F3",
"|. c #7ACDF1",
" X c #7ECCFE",
".X c #77C0F1",
"XX c #62D8F2",
"oX c #7AD3F2",
"OX c #7DD3FC",
"+X c #7EDCFD",
"@X c #71E0EE",
"#X c #63E3FE",
"$X c #6AE4FE",
"%X c #6AEAFF",
"&X c #7EE3FE",
"*X c #74ECFF",
"=X c #818384",
"-X c #868E91",
";X c #8F9293",
":X c #8F969A",
">X c #9A9E9F",
",X c #929595",
"<X c #8397A2",
"1X c #85A8AF",
"2X c #9DACAE",
"3X c #97AFB6",
"4X c #8FB2B9",
"5X c #A4ADB0",
"6X c #A4B4B7",
"7X c #9CB8C0",
"8X c #80BFE5",
"9X c #9DCDDC",
"0X c #BAC6CE",
"qX c #B7C4C6",
"wX c #AFCAD0",
"eX c #B2CCD4",
"rX c #B7D1D7",
"tX c #BFD3D7",
"yX c #BCD2DF",
"uX c #99D1E0",
"iX c #80CFF6",
"pX c #83D3FF",
"aX c #8AD5FD",
"sX c #80D9FF",
"dX c #8FD9FD",
"fX c #94D6FF",
"gX c #90D8FE",
"hX c #9FDBFF",
"jX c #9BD6FC",
"kX c #BCD2E0",
"lX c #A5D6F3",
"zX c #AAD5F1",
"xX c #B2DEF9",
"cX c #82E4FE",
"vX c #8AE4FE",
"bX c #8BE9FF",
"nX c #88E4F8",
"mX c #92E5FB",
"MX c #90EAFF",
"NX c #9BECFF",
"BX c #9EF2FF",
"VX c #BFE4ED",
"CX c #A5E9F6",
"ZX c #A6EBFD",
"AX c #ABE8FB",
"SX c #B4ECFE",
"DX c #B9ECFE",
"FX c #BBE8F2",
"GX c #A1F6FF",
"HX c #AAF4FF",
"JX c #AEF8FF",
"KX c #B6F4FF",
"LX c #BCF5FF",
"PX c #C3CFD0",
"IX c #C8E2E8",
"UX c None",
/* pixels */
"UXUXUXUXUXUXUXUXUXUXUX2 N V 8 UXUXUXUXUXUXUXUXUXUXUXUXUXUXUXUXUX",
"UXUXUXUXUXUXUXUXUXUX0 @.qXPX2XV UXUXUXUXUXUXUXUXUXUXUXUXUXUXUXUX",
"UXUXUXUXUXUXUXUXUX4 H NXHXGXJX6.t UXUXUXUXUXUXUXUXUXUXUXUXUXUXUX",
"UXUXUXUXUXUXUXUXUX9 <.*X%X%X*X@XB UXUXUXUXUXUXUXUXUXUXUXUXUXUXUX",
"UXUXUXUXUXUXUXUXUX9 2.#X#X%X%XT.p UXUXUXUXUXUXUXUXUXUXUXUXUXUXUX",
"UXUXUXUXUXUXUXUXUX1 ` #X#X#X$Xo.2 UXUXUXUXUXUXUXUXUXUXUXUXUXUXUX",
"UXUXUXUXUXUXUXUXUX* p U.#X#X{.a = UXUXUXUXUXUXUXUXUXUXUXUXUXUXUX",
"UXUXUXUXUXUXUXUXUX2 S _.#X#X&X$.N 0 UXUXUXUXm m UXUXUXUXUXUXUXUX",
"UXUXUXC =X=X=X=X=X-X9X+X(.(.*XAXrX5X;X;X,X>X6X3.t UXUXUXUXUXUXUX",
"UXUX7 ;.AXDXDXDXDXZXsX(././.(.$XbXHXKXLXLXKXBXY.t UXUXUXUXUXUXUX",
"UXUX7 q.W.Q.!.!.!.~.~.~.^.^././.(.(.#X{.XX%X%Xo.1 UXUXUXUXUXUXUX",
"UXUXy 0.V.I.I.W.Q.Q.!.~.~.~.^.^././.A.{ -.#X#XD O UXUXUXUXUXUXUX",
"UXUXu i.B.V.V.I.W.Q.Q.Q.!.~.~.^.R.{ a A a { 2.r N 0 $ UXUXUXUXUX",
"UXUXu u.B.B.V.V.I.I.W.Q.Q.Q.~.^.A.b 4XIX6XA Z H tXwXF UXUXUXUXUX",
"UXUX4 Q u.x.N.V.B.I.I.W.Q.Q.E.E.} b nXBXHXVXIXFXHXBX=.% UXUXUXUX",
"UXUX* 3 u i x  .B.V.V.I.W.i.I P a 4.mXcXbXbXbXbX&XbXS.7 & UXUXUX",
"UXUXUX  . O * e  .M.B.I.V.I J @.4XAXnX&X&X&X&XcX&XbXZX1X0 8 UXUX",
"UXUXUXUXUXUXUX& a x.B.B.t.v uXDXCXnX&X].1.*.*.1.].*XvXAXeX7Xy UX",
"UXUXUXUXUXUXUXUX5 9.M.B.| R oXcX+X+X).T z P P z _ ).&XvXNXmX` UX",
"UXUXUXUXUXUXUXUXq e.M.M.w.k =.+X+X+XO.c X.y.y.X.v O.+X+X+X].b UX",
"UXUXUX0 8 UXUX8 ) H.C.m.z.! T oX+XoXE | c.W.W.E.X.R |.sXOX_ % UX",
"UXUX9 #.:XG G #.8XF.b.b.z.! Y OXsX].E t.V.W.G.} n b |.sXOXb X UX",
"UXUXd J.jXzXzXaXF.l.r.I u u 5.dXsX|.Y | V.I.y.r * h iXsXaX+.% UX",
"UXUXL v.v.n.n.v.l.j.g 1 $ ) aXaXpXgX>.z 8.N.0.5 ; :.gXsXaX[.h UX",
"UX2 W d.d.g.g.g.k.W 1 .   g }.pX XaXlX<XD ] _ B :XjXaX XpX'.g UX",
"UX4 / s.d.d.d.g.h.L = UXUX: ) ] K.pXfXxXkX0X0XkXxXgXpXL.Z.%.> UX",
"UX2 W s.s.d.d.g.h.L 2 UXUXUX% < n K. XpXfXjXjXfXpX XL.] : - UXUX",
"UX= u ^ p.f.s.d.d.~ q UXUXUXw K s ]  X X XpX X XpX}._ % UXUXUXUX",
"UXUX& 3 u L ( ~ ~ l 2 UXUXUX6 z s _ L.pXD.&.;.P.pX.Xg UXUXUXUXUX",
"UXUXUX. + * 1 - 1 = + UXUXUX$ - - 3 D ] w % % g ;.) 5 UXUXUXUXUX",
"UXUXUXUXUXUX      UXUXUXUXUXUXUX    o @ o     @ - o UXUXUXUXUXUX",
"UXUXUXUXUXUXUXUXUXUXUXUXUXUXUXUXUXUXUXUXUXUXUXUXUXUXUXUXUXUXUXUX"
};
