/* XPM */
static char *conf_xpm[] = {
/* columns rows colors chars-per-pixel */
"32 32 256 2",
"   c #010101",
".  c #0B0C0C",
"X  c #0F1111",
"o  c #131415",
"O  c #131618",
"+  c #141A1E",
"@  c #1C1C1C",
"#  c #0F1E25",
"$  c #141E26",
"%  c #152226",
"&  c #16242B",
"*  c #1E2326",
"=  c #0B2B3C",
"-  c #182936",
";  c #242425",
":  c #252A2B",
">  c #2B2B2B",
",  c #2D3234",
"<  c #21333F",
"1  c #293537",
"2  c #323232",
"3  c #343A3E",
"4  c #3A3B3C",
"5  c #112F40",
"6  c #123847",
"7  c #1B3A42",
"8  c #103248",
"9  c #153641",
"0  c #123E58",
"q  c #223A45",
"w  c #243B47",
"e  c #343B40",
"r  c #1A4653",
"t  c #1A495F",
"y  c #2F4046",
"u  c #24434F",
"i  c #28444F",
"p  c #344246",
"a  c #3F4748",
"s  c #3A4349",
"d  c #244553",
"f  c #2B4554",
"g  c #2D4853",
"h  c #344E5C",
"j  c #314854",
"k  c #2C525E",
"l  c #39525C",
"z  c #134A67",
"x  c #1B546B",
"c  c #12537B",
"v  c #2F4E60",
"b  c #245967",
"n  c #315265",
"m  c #355369",
"M  c #3E5A65",
"N  c #245575",
"B  c #2F5A73",
"V  c #345972",
"C  c #385F72",
"Z  c #1E617E",
"A  c #2A6A7F",
"S  c #3A617A",
"D  c #38687E",
"F  c #42494B",
"G  c #404E52",
"H  c #4A5152",
"J  c #41545D",
"K  c #5A5D5E",
"L  c #545758",
"P  c #465D64",
"I  c #475A62",
"U  c #575F61",
"Y  c #415E70",
"T  c #4B686B",
"R  c #556062",
"E  c #426877",
"W  c #626C6D",
"Q  c #737C7F",
"!  c #7A7C7D",
"~  c #717475",
"^  c #256D8F",
"/  c #276488",
"(  c #336484",
")  c #306B82",
"_  c #2A748E",
"`  c #3E7380",
"'  c #32798F",
"]  c #226B96",
"[  c #2D7A95",
"{  c #26749A",
"}  c #297D9F",
"|  c #3A7D9F",
" . c #2B72A6",
".. c #527D8E",
"X. c #497C92",
"o. c #637581",
"O. c #787E80",
"+. c #747E84",
"@. c #187EC7",
"#. c #1379C1",
"$. c #39869F",
"%. c #3E82A1",
"&. c #2689BA",
"*. c #368DB8",
"=. c #3292B9",
"-. c #3999B9",
";. c #4A8698",
":. c #548B98",
">. c #5C9097",
",. c #69848C",
"<. c #778182",
"1. c #568BAD",
"2. c #588EAC",
"3. c #5893AB",
"4. c #5599AB",
"5. c #5496A6",
"6. c #588EB2",
"7. c #5999B6",
"8. c #5B9AB8",
"9. c #5F92B7",
"0. c #6A96A0",
"q. c #6295BA",
"w. c #7FA5AD",
"e. c #1887D2",
"r. c #2B91C1",
"t. c #329BC9",
"y. c #39A2C7",
"u. c #3CA4C9",
"i. c #32A0D9",
"p. c #0D94EC",
"a. c #1895E8",
"s. c #038CF3",
"d. c #0896F6",
"f. c #0596FE",
"g. c #0997FD",
"h. c #0B9AFF",
"j. c #119EFF",
"k. c #1094F2",
"l. c #1AA2FF",
"z. c #14A0FF",
"x. c #36ABE8",
"c. c #3AB4E9",
"v. c #36B1E9",
"b. c #29B8FF",
"n. c #34B6F3",
"m. c #33BCFF",
"M. c #38BFFF",
"N. c #33B7F8",
"B. c #5B9BC1",
"V. c #629CC3",
"C. c #51AFC7",
"Z. c #68A2CB",
"A. c #67B2CD",
"S. c #6DAEDD",
"D. c #66A6D3",
"F. c #69B8D8",
"G. c #71B6D5",
"H. c #42BCE9",
"J. c #58BCFF",
"K. c #70B5E4",
"L. c #74BFEC",
"P. c #61BFFF",
"I. c #36C0FF",
"U. c #3DC2FF",
"Y. c #6EC7DD",
"T. c #4DC8ED",
"R. c #5AD0EA",
"E. c #42C2F3",
"W. c #40C5FF",
"Q. c #43C9FF",
"!. c #49CBFD",
"~. c #4DD0FE",
"^. c #58D4FB",
"/. c #71C4E2",
"(. c #73C9E4",
"). c #75C3EE",
"_. c #76C9FF",
"`. c #7ECCFF",
"'. c #79C5F7",
"]. c #6DDCFF",
"[. c #65DCFF",
"{. c #7ED2FF",
"}. c #7EDCFE",
"|. c #78D3F2",
" X c #5FE1FF",
".X c #63E4FF",
"XX c #69EAFF",
"oX c #69E3FB",
"OX c #70E3FF",
"+X c #7EE4FE",
"@X c #78E9FF",
"#X c #828383",
"$X c #868888",
"%X c #8C9C9F",
"&X c #92989B",
"*X c #9BA6A8",
"=X c #A6ABAE",
"-X c #AAB2B7",
";X c #8FBCC1",
":X c #9DB9CC",
">X c #9BBAC3",
",X c #90BAD6",
"<X c #97C3CF",
"1X c #8BCCDA",
"2X c #BBC3C5",
"3X c #B7C6CA",
"4X c #A9CBD2",
"5X c #BBD0D6",
"6X c #8EC7E6",
"7X c #8BCCEB",
"8X c #87D9E7",
"9X c #85DAEF",
"0X c #91DBE8",
"qX c #84CFFF",
"wX c #85D4FF",
"eX c #8AD4FF",
"rX c #85DBFF",
"tX c #8BD9FF",
"yX c #96D7FF",
"uX c #95DCFF",
"iX c #99DBFF",
"pX c #A8DBE3",
"aX c #BBDDF1",
"sX c #87E5FF",
"dX c #96E6FD",
"fX c #92ECFF",
"gX c #9BECFF",
"hX c #9BE6FC",
"jX c #88F0FF",
"kX c #92F0FF",
"lX c #AFE2FF",
"zX c #A9EDFF",
"xX c #A2E9FF",
"cX c #B9E4FF",
"vX c #B4EBFF",
"bX c #B0E2FF",
"nX c #ABF0FF",
"mX c #B5F1FF",
"MX c #BDF1FF",
"NX c #C1D0D2",
"BX c #C9DBE6",
"VX c #CEE2E9",
"CX c #D8E3EA",
"ZX c #C2E8FF",
"AX c #C8E7FC",
"SX c #D2EEFF",
"DX c #C3F3FF",
"FX c #CCF6FF",
"GX c #DDF4FF",
"HX c #D4F9FF",
"JX c #DBF9FF",
"KX c #D8F1F6",
"LX c #E3EAEC",
"PX c #E4F6FC",
"IX c #E1FCFF",
"UX c None",
/* pixels */
"UXUXUXUXUXUXUXUXUXUXUX2 2 4 2 2 UXUXUXUXUXUXUXUXUXUXUXUXUXUXUXUX",
"UXUXUXUXUXUXUXUXUXUX3 R *X2X%Xl 2 UXUXUXUXUXUXUXUXUXUXUXUXUXUXUX",
"UXUXUXUXUXUXUXUXUX2 R pXJXIXHX-Xa UXUXUXUXUXUXUXUXUXUXUXUXUXUXUX",
"UXUXUXUXUXUXUXUXUX2 :.XXjXkXjXXXT UXUXUXUXUXUXUXUXUXUXUXUXUXUXUX",
"UXUXUXUXUXUXUXUXUX, 4..X.XXXXXoXT UXUXUXUXUXUXUXUXUXUXUXUXUXUXUX",
"UXUXUXUXUXUXUXUXUX; E R..X.X.X4.1 UXUXUXUXUXUXUXUXUXUXUXUXUXUXUX",
"UXUXUXUXUXUXUXUXUX@ 3 C. X.X.XP @ UXUXUXUXUXUXUXUXUXUXUXUXUXUXUX",
"UXUXUXUXUXUXUXUXUX> a F.oXOX@X0.H 4 2 UXUX2 4 4 2 UXUXUXUXUXUXUX",
"UXUX2 F +.! ! ! ! ! >XhX+X].9Xw.W K L #X$X#XK U > UXUXUXUXUXUXUX",
"UXUX2 ..vXPXPXPXPXSXvXsX.XR.` ,.NXLXQ <.*XW *XCX%Xp UXUXUXUXUXUX",
"UXUX2 $.!.rXrXtXrX}.].^.^.T.k 0XFXHXKX3X2X3XJXJXmX:.UXUXUXUXUXUX",
"UXUX2 | m.U.W.W.Q.!.!.!.~.-.i 8XgXgXnXDXHXDXnXgXfX` UXUXUXUXUXUX",
"UXUX3 *.m.m.M.U.U.Q.=.) _ l <XzXjX+X+X+X+X+X@XsXgX1Xy UXUXUXUXUX",
"UXUXe =.b.m.m.M.U.c.h 3X&X5XDXdX}.+X@XsX+XsX+X+XdXmX4Xa F 1 UXUX",
"UXUX2 ( i.x.N.M.I.{ >.MXFXmXdX}.sXY.5.;.;.5.(.+X+XdXDXVXVX,.UXUX",
"UXUX@ , f j M | n.t Y.+XsXrX}.+XA.r < r r 7 d A.+X+XdXzXxXF.% UX",
"UXUX      X @ e | t D |.}.}.}.(.u t _ [ [ ' k i (.rX+X}.+X(.q UX",
"UXUXUXUX      @ p / = 7.}.}.}.3.6 $.=.t.y.-.$.q 3.}.}.}./.d O UX",
"UXUXUXUXUXUXUX. : / z 7.rX}.}.X.Z t.c.U.E.H.u.A X.}.{.{.3.7 : UX",
"UXUXUXUXUXUXUXO > { 0 7.wXrX}.X.^ c.U.U.Q.Q.H.[ X.}.rXrX8.b 1 UX",
"UXUXUX2 UXUXUX> I V Y 7XuXtXtX2.x n.M.U.U.W.E.x 2.tXtXuXG.q ; UX",
"UXUX2 o.-X~ K +.,Xq ).wXwXrXuX6Xg &.M.M.U.U.=.j 6XuXwXtXrX8.& UX",
"UX2 s B.AXCXVXaX).0 Z.`.{.{.eXlX<XI ^ r.r._ J :XlXtX{.{.{.B.O UX",
"UX> m a.J._._.J.a.c C K.S.`.`.yXMXNX=X&X&X=XBXZXyXwX{.'.'.V   UX",
"UX> V k.j.l.l.j.p.N $ % % q.`.`.yXcXSXPXGXSXcXyX`.`.K.v n $ UXUX",
"UX> ( g.h.h.j.j.g.N .     # V.`.`.qXqXqXqXqXqX`.`.D.w       UXUX",
"UX> S g.f.g.j.j.g./ O UXUX  n qX`.`.`.`.`.`.qX`.).q   UXUXUXUXUX",
"UX: e ] s.f.g.g.f.e.d UXUX. S '.`.`.V.1.6.S.`.`.L.w UXUXUXUXUXUX",
"UXo > 2 e m  .#.@.( , UXUXX % n 9.1.- 8 - d S.Z.E & UXUXUXUXUXUX",
"UXUX  o @ ; ; > > > o UXUXUXX . o $ O $ $ X - +   UXUXUXUXUXUXUX",
"UXUXUX              UXUXUXUX        . . .         UXUXUXUXUXUXUX",
"UXUXUXUXUXUXUXUXUXUXUXUXUXUXUX                  UXUXUXUXUXUXUXUX"
};
