/* XPM */
static char *delfile_xpm[] = {
/* columns rows colors chars-per-pixel */
"32 32 211 2",
"   c #000000",
".  c #1A1A1A",
"X  c #331F1F",
"o  c #2D2B1C",
"O  c #3E2612",
"+  c #312D15",
"@  c #30281A",
"#  c #32311F",
"$  c #272424",
"%  c #2D2D2D",
"&  c #3B2C2C",
"*  c #333333",
"=  c #393935",
"-  c #393939",
";  c #4C1E1E",
":  c #591818",
">  c #6C0000",
",  c #7C0805",
"<  c #740F09",
"1  c #7B0E0F",
"2  c #6E1B0D",
"3  c #7F1314",
"4  c #721A14",
"5  c #7C1A14",
"6  c #562310",
"7  c #413F1D",
"8  c #513A1B",
"9  c #61231A",
"0  c #70201A",
"q  c #7A3017",
"w  c #433D29",
"e  c #483E29",
"r  c #513725",
"t  c #762E27",
"y  c #773E2C",
"u  c #45402B",
"i  c #48472E",
"p  c #514F25",
"a  c #474232",
"s  c #4D4C38",
"d  c #525135",
"f  c #5B5A3B",
"g  c #625F2C",
"h  c #644839",
"j  c #714B3F",
"k  c #67652F",
"l  c #6D6930",
"z  c #706D33",
"x  c #767235",
"c  c #414141",
"v  c #4E4E4E",
"b  c #5B5A45",
"n  c #52524F",
"m  c #4C5154",
"M  c #535353",
"N  c #54595D",
"B  c #5D5D5D",
"V  c #6F6E47",
"C  c #74734A",
"Z  c #787650",
"A  c #5F6366",
"S  c #7C7E7F",
"D  c #850504",
"F  c #8C0203",
"G  c #870806",
"H  c #8F0D0E",
"J  c #920F10",
"K  c #831210",
"L  c #861D19",
"P  c #941212",
"I  c #9B1414",
"U  c #921B12",
"Y  c #9F1718",
"T  c #95191A",
"R  c #991919",
"E  c #A31B1B",
"W  c #A31F20",
"Q  c #9C2626",
"!  c #9F2A25",
"~  c #9F2E2F",
"^  c #9D3738",
"/  c #A72424",
"(  c #AB2626",
")  c #A12829",
"_  c #A82F30",
"`  c #A43131",
"'  c #A23C34",
"]  c #A43A3A",
"[  c #A93D3D",
"{  c #B43435",
"}  c #BA3E3F",
"|  c #827F3B",
" . c #8E594B",
".. c #A14141",
"X. c #B64444",
"o. c #BB4444",
"O. c #B24949",
"+. c #BF4C4C",
"@. c #AE5146",
"#. c #AF5757",
"$. c #B45555",
"%. c #BD5454",
"&. c #B95858",
"*. c #806642",
"=. c #8B754D",
"-. c #C44D4D",
";. c #C94F4F",
":. c #D54848",
">. c #C35353",
",. c #C45959",
"<. c #CC5A5A",
"1. c #D55555",
"2. c #D25A5A",
"3. c #DA5B5B",
"4. c #E15555",
"5. c #E35D5D",
"6. c #EA5E5E",
"7. c #D86262",
"8. c #E66262",
"9. c #EB6161",
"0. c #E66B6B",
"q. c #ED6C6C",
"w. c #EC7373",
"e. c #EF7F7F",
"r. c #F07676",
"t. c #F07B7B",
"y. c #89853E",
"u. c #8F8B41",
"i. c #959143",
"p. c #9B9746",
"a. c #9C9847",
"s. c #9F9A48",
"d. c #868457",
"f. c #888656",
"g. c #84825C",
"h. c #8E8C5A",
"j. c #A29D49",
"k. c #A6A14B",
"l. c #ACA64D",
"z. c #AFAA4F",
"x. c #B0AB4F",
"c. c #B1AC50",
"v. c #8D8B6B",
"b. c #818077",
"n. c #84837A",
"m. c #9E9C7D",
"M. c #ADAA6E",
"N. c #A9A675",
"B. c #C48775",
"V. c #C3C17F",
"C. c #9B9A80",
"Z. c #A8A286",
"A. c #A3A295",
"S. c #B3B2A2",
"D. c #F18080",
"F. c #CCB09B",
"G. c #C8C586",
"H. c #CCC986",
"J. c #CECC95",
"K. c #CFCD9D",
"L. c #E1DE9C",
"P. c #EAE698",
"I. c #EFEB9C",
"U. c #D5D3B6",
"Y. c #DDDAB2",
"T. c #E1DFBF",
"R. c #EFECA3",
"E. c #EFECAC",
"W. c #F7F3A3",
"Q. c #F9F6A4",
"!. c #FDFAA5",
"~. c #FAF6AE",
"^. c #FFFCAA",
"/. c #EFEDB3",
"(. c #EFEDBC",
"). c #F7F4B3",
"_. c #FFFCB2",
"`. c #F7F4BB",
"'. c #FFFCBA",
"]. c #DCDBC4",
"[. c gray85",
"{. c #E1DFC8",
"}. c #E3E2C3",
"|. c #EFEDC3",
" X c #E1E0CA",
".X c #EFEECB",
"XX c #F7EBCC",
"oX c #FFFDC2",
"OX c #F9F7CE",
"+X c #FFFCCA",
"@X c #E1E1D6",
"#X c #E9E7D0",
"$X c #EFEED3",
"%X c #E1E1DA",
"&X c #EFEEDA",
"*X c #F7F6D4",
"=X c #FFFDD4",
"-X c #F8F7DD",
";X c #FEFDDB",
":X c #D9E1E6",
">X c #E6E6E2",
",X c #EFEEE3",
"<X c #EDEEEB",
"1X c #FFFEE4",
"2X c #F0F0EF",
"3X c #FFFEEC",
"4X c #EFEFF0",
"5X c #F4F4F4",
"6X c #FFFFF4",
"7X c #FEFEFB",
"8X c None",
/* pixels */
"8X8X8X8X8X8X8X8X8X8X8X8X8X8X8X8X8X8X8X8X8X8X8X8X8X8X8X8X8X8X8X8X",
"8X8X8X8X* * * * * * * * * * * * * * * * * * 8X8X8X8X8X8X8X8X8X8X",
"8X8X8X8X* 7X7X7X7X7X7X7X7X7X7X7X7X7X7X7Xc m * 8X8X8X8X8X8X8X8X8X",
"8X8X8X8X* 4X7X7X7X7X7X7X7X7X7X7X7X7X7X5X- :XN * 8X8X8X8X8X8X8X8X",
"8X8X8X8X* <X7X7X7X7X7X7X7X7X7X7X7X7X7X>X- 7X:XA * 8X8X8X8X8X8X8X",
"8X8X8X8X* <X6X7X7X6X6X7X6X7X6X7X7X7X7X%X- 7X7X<XS - 8X8X8X8X8X8X",
"8X8X8X8X* ,X6X6X6X6X6X6X6X6X6X6X6X6X6X%X- 5X7X7X5XB v 8X8X8X8X8X",
"8X8X8X8X* ,X6X6X6X6X6X6X6X6X6X6X6X6X6X@X- <X5X7X7X[.M * 8X8X8X8X",
"8X8X8X8X* ,X3X3Xc.c.c.c.x.c.c.x.c.x.x.a.= - - - - - M % 8X8X8X8X",
"8X8X8X8X* &X3X3X3X3X3X3X3X3X3X3X3X3X3X@XA.S S =.=.n.A.% 8X8X8X8X",
"8X8X8X8X* &X3X1Xc.c.c.c.x.x.c.x.x.c.c.s.| z z z A.A.S.% 8X8X8X8X",
"8X8X8X8X* $X1X1X1X1X1X1X1X1X1X1X1X1X1X-X#X X{.{.:X@X{.* 8X8X8X8X",
"8X8X8X8X* $X1X;Xc.c.x.x.c.c.c.c.c.l.z.z.x.x.x.c.-X;XF.* 8X8X8X8X",
"8X8X8X8X* .X;X;X;X;X;X;X;X;X;X*X}.(.@.Q XX;X*X}.U.B.P & 8X8X8X8X",
"8X8X8X8X* .X=X=Xc.c.c.x.c.x.z.i.z q ) ~ U l.p.x  .T ..5 8X8X8X8X",
"8X8X8X8X* .X=X=X=X=X=X=X=XOXY.C.t ( &.&.] ' Z.j R $.#.^ J 8X8X8X",
"8X8X8X8X* |.+X+Xc.x.z.z.l.i.l 2 { 1.<.,.&.` G R %.,.&.#...P 8X8X",
"8X8X8X8X* (.+X+X+X+X+X+XY.m.h D r.8.3.<.,.>.X.+.,.,.,.&.#.Q > 8X",
"8X8X8X8X* (.+X+Xx.c.x.z.y.p ; , o.q.8.3.<.<.<.<.<.,.,.,.O.P 8X8X",
"8X8X8X8X* /.'.+XoX'.oX).K.v.b a 4 -.w.8.3.<.2.<.<.<.,.o.P 8X8X8X",
"8X8X8X8X* /.'.'.c.c.c.x.k.y.k 7 + < { 8.3.2.2.<.<.<.-.H 8X8X8X8X",
"8X8X8X8X* E.'.'.'.'.'.'.'.).J.g.s 9 ( 5.5.3.2.2.2.<.o.1 8X8X8X8X",
"8X8X8X8X* E._.'.c.c.x.c.x.z.i.g 6 E 4.9.6.5.3.2.<.<.>._ F 8X8X8X",
"8X8X8X8X* R._._._.^._._.~.L.N.y / 8.9.9.9.6.5.5.3.<.<.&.[ P 8X8X",
"8X8X8X8X* R.^.^.x.x.x.x.s.x 8 F D.r.q.q.9.6.3.8.8.3.<.,.&.Q > 8X",
"8X8X8X8X* R.^.^.^.^.^.Q.G.Z r G ;.t.r.w.q.:.E -.w.8.1.<.%.P 8X8X",
"8X8X8X8X* I.^.^.!.^.^.W.H.d.d e K 2.t.t.3.I r 5 } w.8.1.R 8X8X8X",
"8X8X8X8X* I.!.^.!.!.!.W.P.V.d.d w P -.7.I =.f e 4 ;.0.Y 8X8X8X8X",
"8X8X8X8X* M.h.h.h.h.h.h.h.f.C i o @ L I V C d # o K E ; 8X8X8X8X",
"8X8X8X8X% * * * * * * * * * % $ . . X & * * $ . . $ : % 8X8X8X8X",
"8X8X8X8X8X8X8X8X8X8X8X8X8X8X8X        8X8X8X        8X8X8X8X8X8X",
"8X8X8X8X8X8X8X8X8X8X8X8X8X8X8X8X8X8X8X8X8X8X8X8X8X8X8X8X8X8X8X8X"
};
