/* XPM */
static char *delfold_xpm[] = {
/* columns rows colors chars-per-pixel */
"32 32 240 2",
"   c #000000",
".  c #090000",
"X  c #1E0000",
"o  c #110E0E",
"O  c #121212",
"+  c #1B1B1B",
"@  c #200000",
"#  c #370000",
"$  c #2C1818",
"%  c #262626",
"&  c #2D2D2D",
"*  c #3F2929",
"=  c #333333",
"-  c #363738",
";  c #540001",
":  c #4F1D1D",
">  c #690303",
",  c #600909",
"<  c #7D090A",
"1  c #7C0F10",
"2  c #7C1612",
"3  c #781A14",
"4  c #61231B",
"5  c #70201C",
"6  c #452222",
"7  c #432B26",
"8  c #4E3724",
"9  c #463C27",
"0  c #513624",
"q  c #752523",
"w  c #712B29",
"e  c #653225",
"r  c #773E2C",
"t  c #464235",
"y  c #4D4C39",
"u  c #5C433D",
"i  c #515034",
"p  c #6B563B",
"a  c #3D454B",
"s  c #3E484E",
"d  c #3F4A50",
"f  c #53564C",
"g  c #5C5B4B",
"h  c #404B51",
"j  c #465052",
"k  c #4E5557",
"l  c #47555D",
"z  c #714B41",
"x  c #787650",
"c  c #5E6566",
"v  c #54656F",
"b  c #586973",
"n  c #686C6F",
"m  c #636F71",
"M  c gray46",
"N  c #7C7E76",
"B  c #7A7B7D",
"V  c #850504",
"C  c #8C0001",
"Z  c #8D0D0D",
"A  c #930F10",
"S  c #931213",
"D  c #9A1314",
"F  c #961916",
"G  c #9F1718",
"H  c #951C1C",
"J  c #99191A",
"K  c #A31C1C",
"L  c #8F2625",
"P  c #9C2626",
"I  c #9B2F26",
"U  c #9F2C2C",
"Y  c #96312E",
"T  c #9C302E",
"R  c #803835",
"E  c #9D3738",
"W  c #A72424",
"Q  c #AB2626",
"!  c #A12829",
"~  c #A82F30",
"^  c #A43131",
"/  c #A43A3A",
"(  c #A93D3D",
")  c #B43435",
"_  c #BA3E3F",
"`  c #B0503F",
"'  c #8E594F",
"]  c #905E44",
"[  c #A14141",
"{  c #B64444",
"}  c #BB4444",
"|  c #B24949",
" . c #BF4C4C",
".. c #AE514D",
"X. c #AF5757",
"o. c #B45555",
"O. c #BD5454",
"+. c #B95858",
"@. c #C44D4D",
"#. c #C94F4F",
"$. c #D54848",
"%. c #C64F50",
"&. c #C35454",
"*. c #C45959",
"=. c #CC5A5A",
"-. c #D55555",
";. c #D25A5A",
":. c #DA5B5B",
">. c #E15555",
",. c #E35D5D",
"<. c #EA5E5E",
"1. c #D86262",
"2. c #E66262",
"3. c #EB6161",
"4. c #E66B6B",
"5. c #ED6C6C",
"6. c #EC7373",
"7. c #EF7F7F",
"8. c #F07676",
"9. c #F07B7B",
"0. c #828054",
"q. c #838161",
"w. c #8D8B65",
"e. c #8D8C72",
"r. c #959474",
"t. c #95947E",
"y. c #A9A676",
"u. c #AAA874",
"i. c #C4877E",
"p. c #237C8D",
"a. c #5C7788",
"s. c #5E7A8B",
"d. c #627886",
"f. c #617D8F",
"g. c #617E90",
"h. c #7E8384",
"j. c #648194",
"k. c #6C8493",
"l. c #68879A",
"z. c #7693A5",
"x. c #57A4B3",
"c. c #8D8682",
"v. c #898E85",
"b. c #858A8A",
"n. c #8F8F8A",
"m. c #8D9386",
"M. c #A8A28D",
"N. c #BEBB84",
"B. c #BEBC8B",
"V. c #A8A796",
"C. c #A6A99E",
"Z. c #AEB09B",
"A. c #BEBC93",
"S. c #BEBD9D",
"D. c #99AEB2",
"F. c #9DB0B3",
"G. c #BEBDA2",
"H. c #BCB7A9",
"J. c #BEBEAA",
"K. c #B2B2B0",
"L. c #BBBBB4",
"P. c #BFBFBA",
"I. c #F18080",
"U. c #CBB599",
"Y. c #D8BDB5",
"T. c #BFC7B9",
"R. c #C7C481",
"E. c #C8C584",
"W. c #D3D08D",
"Q. c #CECC99",
"!. c #D7D499",
"~. c #E1DE9D",
"^. c #E5E19B",
"/. c #F1ED9C",
"(. c #CFCDA3",
"). c #D6CEAA",
"_. c #C2C3B3",
"`. c #C6C5BC",
"'. c #C1C9BE",
"]. c #C8CABB",
"[. c #F9F5A2",
"{. c #FAF7AF",
"}. c #FFFBAB",
"|. c #ECE7B2",
" X c #EFEDBB",
".X c #F0EFBE",
"XX c #F7F4B7",
"oX c #FFFCB3",
"OX c #FFFCBC",
"+X c #84AAC2",
"@X c #8BB5CE",
"#X c #94BBC2",
"$X c #8DB7D0",
"%X c #8EB8D2",
"&X c #91BCD6",
"*X c #93BFD9",
"=X c #A8BDC1",
"-X c #9BC9D1",
";X c #96C3DE",
":X c #98C4E0",
">X c #9AC8E4",
",X c #CFCDC5",
"<X c #C9CECF",
"1X c #D5D5C7",
"2X c #D4D9CB",
"3X c #CCD0D1",
"4X c #D1D3D4",
"5X c #E0DFCB",
"6X c #E0DFD1",
"7X c #D5E5DD",
"8X c #E8ECC4",
"9X c #ECF0C0",
"0X c #FFFCC5",
"qX c #F7F5CB",
"wX c #FFFDCC",
"eX c #E3E3D6",
"rX c #E0E7DC",
"tX c #F7ECDE",
"yX c #FFFDD4",
"uX c #FFFEDB",
"iX c #CBDEE9",
"pX c #CFE3EC",
"aX c #D2E5E4",
"sX c #D2E5EC",
"dX c #D5E8EB",
"fX c #CAEEF9",
"gX c #D4F4FA",
"hX c #DAF7FF",
"jX c #DBF8FE",
"kX c gray92",
"lX c #FFFDE2",
"zX c #F7F6E8",
"xX c #FEFEED",
"cX c #E2F8FE",
"vX c #EAFAFF",
"bX c #F0F3F5",
"nX c #FDFCF4",
"mX c #F3FCFE",
"MX c #FEFFFD",
"NX c None",
/* pixels */
"NXNXNXNXNXNXNXNXNXNXNXNXNXNXNXNXNXNXNXNXNXNXNXNXNXNXNXNXNXNXNXNX",
"NXNXNXNXNXNXNXNX= = = = = = = = = = = = & NXNXNXNXNXNXNXNXNXNXNX",
"NXNXNXNXNXNXNXNX= MXMXMXMXMXMXMXMXMXkX= n % NXNXNXNXNXNXNXNXNXNX",
"NXNXNXNXNXNXNXNX= MXMXMXMXMXMXMXMXMX4X= bXc & NXNXNXNXNXNXNXNXNX",
"NXNXNXNXNXNXNXNX= MXmXMXmXMXmXMXMXMX<X= MXbXB & NXNXNXNXNXNXNXNX",
"NXNXNXNXNXNXNXNX= MXmXmXMXMXMXMXMXMX3X= MXMXMXM NXNXNXNXNXNXNXNX",
"NXNXNXNXNXNXNXNX= MXmXcXp.p.p.p.p.p.#X= = = = = = NXNXNXNXNXNXNX",
"NX= = = = = = = = vXvXcXjXcXjXjXjXjX-Xm j k k c = NXNXNXNXNXNXNX",
"NX= &X:X;X;X;X;X= vXjXhXp.p.p.p.p.p.x.x.x.D.D.=X= = = = NXNXNXNX",
"NX= ;X>X>X>X>X>X= cXhXhXhXhXhXhXhXhXhXhXhXhXgXhX= z.z.= NXNXNXNX",
"NX= ;X>X>X>X>X>X= hXfXk.- - - - - - = - - - - - - - - = = = = NX",
"NX= *X&Xk.b b b b v l = K.nXnXnXnXnXnXmXnXnXnXnXnXnXmXh.pXiX= NX",
"NX= @Xl.a n.L.L.L.L.L.`.nXMXMXnXMXnXMXnXMXnXMXMXnXnXnXb.sXpX= NX",
"NX= @Xs.a `.nXnXnXnXnXnXnXnXnXnXnXnXnXnXnXnXnXxXnXxXY.b.dXsX= NX",
"NX= @Xs.a J.xXxXxXxXxXxXxXnXxXzXeXeX..! tXnXnX6X1Xi.S c.dXaX= NX",
"NX= @Xs.a J.xXxXxXxXxXxX_.]._.C.N R ! T L U.2XV.' F [ L ,XaX= NX",
"NX= @Xs.a T.lXlXlXlXlXlX].7X'.m.w Q &.+./ Y M.z J o.X.E S 2X= NX",
"NX= @Xs.a G.yXyXuXuXlXlX_.T.v.q ) -.=.*.+.^ Z F %.*.+.X.[ T 6 NX",
"NX= @Xs.a A.wXyXyXyXyXyXZ.m.u C 8.,.:.=.*.&.{  .*.*.*.+.X.P > NX",
"NX= @Xs.a A.0XwXwXyXyXqXt.g 7 < ` 6.,.:.=.=.=.=.*.*.*.*.| S * NX",
"NX= $Xg.s A.OXwXwXwXwXqX(.e.g t 3 %.6.2.;.;.;.=.=.=.=.} S U.= NX",
"NX= %Xj.h B.oXOXOX0X0X0X X(.r.g t 2 ) 2.:.;.;.;.=.*.@.S ).8X= NX",
"NX= %Xj.h B.}.oXoXOXOXOXOXXXQ.0.y 4 Q ,.,.:.;.;.;.=.} I 9X9X= NX",
"NX= %Xj.s B.}.}.oXoXoXOXOXXX!.w.e K >.<.<.,.:.;.;.=.&.~ J |.= NX",
"NX= $Xf.s N.}.}.}.oXoXoX{.~.y.r Q 3.3.3.<.<.,.:.;.=.*.O.( ` = NX",
"NX= @Xs.a N.}.}.}.}.}.}.^.u.p C 9.8.8.3.3.<.:.2.2.:.=.*.+.! > NX",
"NX= +Xs.j u.}.}.}.}.}.[.E.x 0 V $.I.8.8.5.$.K @.6.,.:.=.O.F : NX",
"NX= d.l g W.[.[.[.[.[./.E.0.i 9 Z ;.i.8.:.D 8 3 _ 6.2.-.J ] = NX",
"NX= = = = = = = = = = = & % + O O A @.1.G $ O o , &.4.G : = % NX",
"NXNXNXNX                            1 A @         < K #     NXNX",
"NXNXNXNXNX                          X X           . ;     NXNXNX",
"NXNXNXNXNXNXNXNXNXNXNXNXNXNXNXNXNXNXNXNXNXNXNXNXNXNXNXNXNXNXNXNX"
};
