/* XPM */
static char *edit_xpm[] = {
/* columns rows colors chars-per-pixel */
"32 32 129 2",
"   c #040404",
".  c #0C0C0C",
"X  c gray8",
"o  c #1B1B1B",
"O  c #232222",
"+  c #2C2C2C",
"@  c #322E28",
"#  c #36322B",
"$  c #3D3D2F",
"%  c #323232",
"&  c #393636",
"*  c #3B3A35",
"=  c #3D3C3B",
"-  c #493B2C",
";  c #413C39",
":  c #483E3C",
">  c #7D5816",
",  c #5C4B27",
"<  c #474435",
"1  c #494636",
"2  c #42403D",
"3  c #4B4838",
"4  c #514730",
"5  c #524830",
"6  c #59423F",
"7  c #524D3B",
"8  c #54503D",
"9  c #58543E",
"0  c #70582B",
"q  c #625531",
"w  c #6C5B30",
"e  c #715F30",
"r  c #76632F",
"t  c #7B662F",
"y  c #7E6930",
"u  c #454444",
"i  c #4B4B4B",
"p  c #524745",
"a  c #585440",
"s  c #52504C",
"d  c #565555",
"f  c #5C5353",
"g  c gray37",
"h  c #76514F",
"j  c #646767",
"k  c #676868",
"l  c #6D6D6D",
"z  c #7C7C7C",
"x  c #8E4F14",
"c  c #8A7130",
"v  c #83733B",
"b  c #917731",
"n  c #967B32",
"m  c #997E33",
"M  c #955653",
"N  c #AA5C5B",
"B  c #997943",
"V  c #A2605B",
"C  c #8C7D60",
"Z  c #977171",
"A  c #B37C7B",
"S  c #CD7476",
"D  c #9B8133",
"F  c #A28534",
"G  c #AA8C36",
"H  c #B78830",
"J  c #B08E3C",
"K  c #BD9D37",
"L  c #D8930C",
"P  c #EC9500",
"I  c #D09735",
"U  c #D3AF37",
"Y  c #D6B137",
"T  c #DCB737",
"R  c #DBB538",
"E  c #E2BA38",
"W  c #E9C035",
"Q  c #F9D13F",
"!  c #C29749",
"~  c #E7B14A",
"^  c #F2B649",
"/  c #E8B954",
"(  c #F7D144",
")  c #F9D142",
"_  c #E3C25F",
"`  c #CAC47A",
"'  c #DED177",
"]  c #EEC27E",
"[  c #F6DF77",
"{  c #F6E079",
"}  c #F9E47D",
"|  c #848484",
" . c #8C8383",
".. c #8D8D8D",
"X. c #939393",
"o. c #95959B",
"O. c #999999",
"+. c #B48C8C",
"@. c #A4A4A4",
"#. c #A8A7A7",
"$. c #ACACAC",
"%. c #B0B0AF",
"&. c #B0AFB0",
"*. c #B2B2B2",
"=. c #B7B8B8",
"-. c #BBBBBB",
";. c #D18485",
":. c #D5A19E",
">. c #E1A7A5",
",. c #BFC0BF",
"<. c #DDD683",
"1. c #E3D685",
"2. c #E7D98A",
"3. c #EDDF8C",
"4. c #F9E780",
"5. c #F9EA81",
"6. c #C0BFC0",
"7. c #BBC1C1",
"8. c #C4C4C4",
"9. c #C7CECE",
"0. c #CCCCCC",
"q. c #D0D0CF",
"w. c #CFD0D0",
"e. c #D4D4D4",
"r. c #D8D7D7",
"t. c #DCDCDC",
"y. c #E2E2E2",
"u. c #F2F7F6",
"i. c None",
/* pixels */
"i.i.i.i.i.i.i.i.i.i.i.i.i.i.i.i.i.i.i.i.i.i.i.i.i.i.i.i.i.i.i.i.",
"i.i.i.i.i.i.i.i.i.i.i.i.i.i.i.i.i.i.i.i.i.i.i.i.i.i.i.i.i.i.i.i.",
"i.i.i.i.i.i.i.i.i.i.i.i.i.i.i.i.i.i.i.i.i.i.i.i.i.i.i.i.i.i.i.i.",
"i.i.i.i.i.i.i.i.i.i.i.i.i.i.i.i.i.i.i.i.i.i.i.i.i.i.i.i.i.i.i.i.",
"i.i.i.i.i.i.i.i.i.i.i.i.i.i.i.i.i.i.i.i.i.i.i.i.i.i.i.i.i.i.i.i.",
"i.i.i.i.i.i.i.i.i.i.i.i.i.i.i.i.i.i.i.i.i.i.; p p & i.i.i.i.i.i.",
"i.i.i.i.i.i.i.i.i.i.i.i.i.i.i.i.i.i.i.i.i.= V >.:.h & i.i.i.i.i.",
"i.i.i.i.i.i.i.i.i.i.i.i.i.% % % % % % & u  .A ;.S N : % i.i.i.i.",
"i.i.i.i.i.i.i.i.i.i.i.% u z *.0.t.w.| u O.7.7.+.N M ; % i.i.i.i.",
"i.i.i.i.i.i.i.i.i.i.% l 8.0.,.*.$.@.2 o.*.,.u.e.Z p % i.i.i.i.i.",
"i.i.i.i.i.i.i.i.i.% | 0.-.$.#.#.#.i & u | r.y.9.f % i.i.i.i.i.i.",
"i.i.i.i.i.i.i.i.% k 0.=.$.&.$.#.i $ ` ' v @.=.k % i.i.i.i.i.i.i.",
"i.i.i.i.i.i.i.i.u *.-.*.*.*.$.i < <.5.( K d k % u i.i.i.i.i.i.i.",
"i.i.i.i.i.i.i.+ l -.=.=.=.*.i < <.5.( E G q % | l % i.i.i.i.i.i.",
"i.i.i.i.i.i.i.% O.8.-.=.*.i 1 1.4.( E G c & z -.O.% i.i.i.i.i.i.",
"i.i.i.i.i.i.i.% *.8.8.-.u 3 1.} ( E G y * | =.8.%.% i.i.i.i.i.i.",
"i.i.i.i.i.i.i.% =.8.6.i 7 1.} ) E F y * ..6.8.8.=.% i.i.i.i.i.i.",
"i.i.i.i.i.i.i.% *.8.u 7 2.} ) T D r ; ..8.0.0.8.*.% i.i.i.i.i.i.",
"i.i.i.i.i.i.i.% X.u 9 2.} ) T D r ; X.0.e.q.q.8.O.% i.i.i.i.i.i.",
"i.i.i.i.i.i.i.+ + 9 3.} Q Y n r 2 O.e.r.r.e.e.-.l + i.i.i.i.i.i.",
"i.i.i.i.i.i.i.@ , 1.[ Q Y n 0 u O.e.r.t.t.t.0.@.u O i.i.i.i.i.i.",
"i.i.i.i.i.i.% x L _ E U b w u @.r.y.y.y.y.q.%.g + i.i.i.i.i.i.i.",
"i.i.i.i.i.i.- P ^ ] J c 4 u @.y.y.y.y.y.0.@.k % X i.i.i.i.i.i.i.",
"i.i.i.i.i.% x / ~ I ! 5 % z -.t.y.t.9.$.| d % o i.i.i.i.i.i.i.i.",
"i.i.i.i.i.% C B H 0 # O % d l z | z l d u + X i.i.i.i.i.i.i.i.i.",
"i.i.i.i.i.i s # % + X   o O + % % % + + o i.i.i.i.i.i.i.i.i.i.i.",
"i.i.i.i.# & + O X . i.i.i.i.i.i.i.i.i.i.i.i.i.i.i.i.i.i.i.i.i.i.",
"i.i.i.i.i.. X . i.i.i.i.i.i.i.i.i.i.i.i.i.i.i.i.i.i.i.i.i.i.i.i.",
"i.i.i.i.i.i.i.i.i.i.i.i.i.i.i.i.i.i.i.i.i.i.i.i.i.i.i.i.i.i.i.i.",
"i.i.i.i.i.i.i.i.i.i.i.i.i.i.i.i.i.i.i.i.i.i.i.i.i.i.i.i.i.i.i.i.",
"i.i.i.i.i.i.i.i.i.i.i.i.i.i.i.i.i.i.i.i.i.i.i.i.i.i.i.i.i.i.i.i.",
"i.i.i.i.i.i.i.i.i.i.i.i.i.i.i.i.i.i.i.i.i.i.i.i.i.i.i.i.i.i.i.i."
};
