/* XPM */
static char *file_rename_xpm[] = {
/* columns rows colors chars-per-pixel */
"32 32 124 2",
"   c black",
".  c #101010",
"X  c #1D1D1D",
"o  c #202020",
"O  c #2D2D2D",
"+  c #333333",
"@  c #393935",
"#  c #393939",
"$  c #48472E",
"%  c #585628",
"&  c #5E5C2B",
"*  c #41413D",
"=  c #4D4C3D",
"-  c #595738",
";  c #6E6B32",
":  c #706D33",
">  c #7F7B39",
",  c #424242",
"<  c #4D4D45",
"1  c #4E4E4E",
"2  c #53534B",
"3  c #5A5A4E",
"4  c #4C5154",
"5  c #535353",
"6  c #5E5E54",
"7  c #54595D",
"8  c #5D5D5D",
"9  c #7C7A4F",
"0  c #6D6C53",
"q  c #64635B",
"w  c #706F55",
"e  c #7F7D54",
"r  c #7F7E5A",
"t  c #5F6366",
"y  c #7C7B61",
"u  c #79796D",
"i  c #7C7E7F",
"p  c #827F3B",
"a  c #8C883F",
"s  c #878446",
"d  c #908C41",
"f  c #9B9646",
"g  c #9C9847",
"h  c #878558",
"j  c #8E8C5A",
"k  c #A29D49",
"l  c #B1AC50",
"z  c #838266",
"x  c #979562",
"c  c #9F9D69",
"v  c #818077",
"b  c #84837A",
"n  c #9F9D73",
"m  c #9F9D78",
"M  c #ADAA6F",
"N  c #B7B479",
"B  c #A3A286",
"V  c #ACAA8D",
"C  c #A2A294",
"Z  c #ABAA9C",
"A  c #B6B597",
"S  c #BEBD94",
"D  c #B6B599",
"F  c #B4B3A4",
"G  c #B8B7A0",
"H  c #C1BF9B",
"J  c #C5C280",
"K  c #D1CE8B",
"L  c #DDDA8F",
"P  c #C2C295",
"I  c #C8C699",
"U  c #CDCB9E",
"Y  c #DFDC93",
"T  c #DFDC9B",
"R  c #E5E295",
"E  c #E7E498",
"W  c #EEEA9B",
"Q  c #F5F19F",
"!  c #D0CEA5",
"~  c #DFDCA2",
"^  c #DFDDA9",
"/  c #DFDCB0",
"(  c #E9E6A7",
")  c #EFECA3",
"_  c #EFECAC",
"`  c #FDFAA5",
"'  c #FFFCAB",
"]  c #E7E5B7",
"[  c #EFEDB3",
"{  c #E1E0B9",
"}  c #EFEDBC",
"|  c #FFFDB5",
" . c #FFFDBC",
".. c #DCDBC4",
"X. c gray85",
"o. c #E1DFC8",
"O. c #EFEDC3",
"+. c #E1E0CA",
"@. c #EFEDCC",
"#. c #F0EECE",
"$. c #F7F5C4",
"%. c #FFFDC2",
"&. c #FFFDCB",
"*. c #E1E1D6",
"=. c #E9E7D0",
"-. c #EFEED2",
";. c #E1E1DA",
":. c #EFEEDA",
">. c #F4F3D4",
",. c #FFFDD4",
"<. c #F8F7DD",
"1. c #FFFDDB",
"2. c #D9E1E6",
"3. c #E6E6E2",
"4. c #EFEEE3",
"5. c #EDEEEB",
"6. c #FFFEE4",
"7. c #F0F0EF",
"8. c #FFFEEC",
"9. c #EFEFF0",
"0. c #F4F4F4",
"q. c #FFFFF4",
"w. c #FEFEFB",
"e. c None",
/* pixels */
"e.e.e.e.e.e.e.e.e.e.e.e.e.e.e.e.e.e.e.e.e.e.e.e.e.e.e.e.e.e.e.e.",
"e.e.e.e.+ + + + + + + + + + + + + + + + + + e.e.e.e.e.e.e.e.e.e.",
"e.e.e.e.+ w.w.w.w.w.w.w.w.w.w.w.w.w.w.w., 4 + e.e.e.e.e.e.e.e.e.",
"e.e.e.e.+ 9.w.w.w.w.w.w.w.w.w.w.w.w.w.0.# 2.7 + e.e.e.e.e.e.e.e.",
"e.e.e.e.+ 5.w.w.w.w.w.w.w.w.w.w.w.w.w.3.# w.2.t + e.e.e.e.e.e.e.",
"e.e.e.e.+ 5.q.w.w.q.q.w.w.q.w.q.w.w.w.;.# w.w.5.i # e.e.e.e.e.e.",
"e.e.e.e.+ 4.q.q.q.w.q.q.q.q.q.q.q.q.q.;.# 0.w.w.0.8 1 e.e.e.e.e.",
"e.e.e.e.+ 4.q.q.8.q.q.q.q.q.q.q.q.q.q.*.# 5.0.w.w.X.5 + e.e.e.e.",
"e.e.e.e.+ 4.8.8.l l l l l l l l l l l g @ + + + # # 5 + e.e.e.e.",
"e.e.e.e.+ :.8.8.8.8.8.8.8.8.8.8.8.8.8.*.C b b v v b C O e.e.e.e.",
"e.e.e.e.+ :.8.6.l l l l l l l l l l l g a ; ; : C C F O e.e.e.e.",
"e.e.e.e.+ -.6.6.6.6.6.6.6.6.6.6.6.6.6.<.@...+.o.o.+...+ e.e.e.e.",
"e.e.e.e.+ -.6.1.l l l l l l l l l l l l l l l l 1.6.-.+ e.e.e.e.",
"e.e.e.e.+ @.1.1.1.1.1.1.1.1.1.1.1.,.<.#.>.q D 1.1.1.@.+ e.e.e.e.",
"e.e.e.e.+ @.,.,.l l l l l l l l l l k a d + y s ,.1.@.+ e.e.e.e.",
"e.e.e.e.+ @.,.,.,.,.,.,.,.,.,.&.&.,.{ V B + ! q D ,.O.+ e.e.e.e.",
"e.e.e.e.+ O.&.&.l l l l l l l l l l g ; & + %.F 8 D } + e.e.e.e.",
"e.e.e.e.+ } &.&.&.&.$.] / + + + + + + + + + %.1.Z 6 V + e.e.e.e.",
"e.e.e.e.+ } %.&.l l k > ; + %.,.,.,.,.,.,.%.%.&.<.Z 3 + e.e.e.e.",
"e.e.e.e.+ [ %. .%. .^ m y +  .%.%.%. .%.%.%.%. .&.<.C * e.e.e.e.",
"e.e.e.e.+ [  . .l l g ; % +  .%. .%. .%. .%. .%.%.&.>.C , e.e.e.",
"e.e.e.e.+ _  . . . .T n r +  . . . . . . . . . . .%.&.>.u + e.e.",
"e.e.e.e.+ _ | | l l g ; % +  . . . .|  . . . .|  . .%.P 2 + e.e.",
"e.e.e.e.+ ) | ' | | T c r + |  . . . .|  .|  . . .%.S < O e.e.e.",
"e.e.e.e.+ ) ' ' l l g ; % + | |  .| | |  .| | |  .P < + e.e.e.e.",
"e.e.e.e.+ ) ' ' ' ' Y c e + + + + + + + + + |  .I 2 0 + e.e.e.e.",
"e.e.e.e.+ W ' ' ` ' R N c c c c c c x h e + | U 3 w K + e.e.e.e.",
"e.e.e.e.+ W ` ` ` ` Q R Y L L L L L J x e + ( 6 0 Y W + e.e.e.e.",
"e.e.e.e.+ M j j j j j j j j j j j j 9 - $ + z = e j M + e.e.e.e.",
"e.e.e.e.O + + + + + + + + + + + + + O o X + # + + + + O e.e.e.e.",
"e.e.e.e.e.e.e.e.e.e.e.e.e.e.e.e.e.e.      O . e.e.e.e.e.e.e.e.e.",
"e.e.e.e.e.e.e.e.e.e.e.e.e.e.e.e.e.e.e.e.e.e.e.e.e.e.e.e.e.e.e.e."
};
