/* XPM */
static char *fold_rename_xpm[] = {
/* columns rows colors chars-per-pixel */
"32 32 174 2",
"   c black",
".  c #090909",
"X  c #1C1C1C",
"o  c #252525",
"O  c #2C2C2C",
"+  c #333333",
"@  c #3A3A33",
"#  c #363738",
"$  c #3D454B",
"%  c #3E484E",
"&  c #3F4A50",
"*  c #4D4D45",
"=  c #52524A",
"-  c #5A5A4E",
";  c #404B51",
":  c #465052",
">  c #4E5557",
",  c #47555D",
"<  c #575851",
"1  c #5D5D54",
"2  c #6E6D55",
"3  c #62615A",
"4  c #6F6F5B",
"5  c #7E7C53",
"6  c #70705E",
"7  c #7F7E5B",
"8  c #5E6566",
"9  c #54656F",
"0  c #586973",
"q  c #656561",
"w  c #686C6F",
"e  c #7D7C65",
"r  c #79796D",
"t  c #636F71",
"y  c gray46",
"u  c #777D73",
"i  c #7A7B7D",
"p  c #848256",
"a  c #93915F",
"s  c #838266",
"d  c #80806F",
"f  c #9B9964",
"g  c #9F9D6C",
"h  c #8E907E",
"j  c #9F9D74",
"k  c #9F9D7C",
"l  c #A09E71",
"z  c #B3B074",
"x  c #237C8D",
"c  c #5C7788",
"v  c #5E7A8B",
"b  c #627886",
"n  c #617D8F",
"m  c #617E90",
"M  c #7E8384",
"N  c #648194",
"B  c #6C8493",
"V  c #68879A",
"C  c #7693A5",
"Z  c #57A4B3",
"A  c #858A8A",
"S  c #8F8F8A",
"D  c #8B9286",
"F  c #8D928E",
"G  c #9F9E80",
"H  c #92978F",
"J  c #969C93",
"K  c #9D9E95",
"L  c #9FA497",
"P  c #A3A58D",
"I  c #BEBB84",
"U  c #BEBC8B",
"Y  c #A1A193",
"T  c #ABAF97",
"R  c #A1A399",
"E  c #AAAB9C",
"W  c #AEB09B",
"Q  c #BEBC94",
"!  c #B7B69A",
"~  c #BEBD9D",
"^  c #99AEB2",
"/  c #9DB0B3",
"(  c #B5B4A7",
")  c #B6BAA1",
"_  c #BEBDA2",
"`  c #B6B7AC",
"'  c #B8B7AE",
"]  c #BDBDAA",
"[  c #B2B2B0",
"{  c #BBBBB4",
"}  c #BFBFBA",
"|  c #C1BF9B",
" . c #D3D08D",
".. c #DAD78F",
"X. c #C2C295",
"o. c #C8C699",
"O. c #CDCB9E",
"+. c #DEDB95",
"@. c #DEDB9D",
"#. c #E2DE92",
"$. c #D0CEA5",
"%. c #DDDCA4",
"&. c #DFDCAE",
"*. c #C2C2B3",
"=. c #C7C8B5",
"-. c #C5C6BC",
";. c #C4C9BC",
":. c #C8CABB",
">. c #DFDCB4",
",. c #E9E6A7",
"<. c #EFEEA3",
"1. c #F3F0A0",
"2. c #F9F5A1",
"3. c #FFFBAB",
"4. c #E7E5BE",
"5. c #F7F6B0",
"6. c #FFFDB5",
"7. c #FFFDBC",
"8. c #84AAC2",
"9. c #8BB5CE",
"0. c #94BBC2",
"q. c #8DB7D0",
"w. c #8EB8D2",
"e. c #91BCD6",
"r. c #93BFD9",
"t. c #A8BDC1",
"y. c #9BC9D1",
"u. c #96C3DE",
"i. c #98C4E0",
"p. c #9AC8E4",
"a. c #C5CEC5",
"s. c #C9CECF",
"d. c #CCD0D1",
"f. c #D1D3D4",
"g. c #DEE7D7",
"h. c #DDE9D6",
"j. c #D5E5DD",
"k. c #DDE7D8",
"l. c #DDE9DA",
"z. c #E7E6C5",
"x. c #E5EDCE",
"c. c #E8EEC9",
"v. c #FFFDC2",
"b. c #FFFDCB",
"n. c #E0EBD1",
"m. c #E1EBDC",
"M. c #E6F0D4",
"N. c #E9F2D1",
"B. c #F5F5D5",
"V. c #FFFED4",
"C. c #FEFDDC",
"Z. c #CBDEE9",
"A. c #CFE3EC",
"S. c #D2E5E4",
"D. c #DCEBE1",
"F. c #D2E5EC",
"G. c #D5E8EB",
"H. c #CAEEF9",
"J. c #D4F4FA",
"K. c #DAF7FF",
"L. c #DBF8FE",
"P. c #E5EDE1",
"I. c gray92",
"U. c #F0EFE2",
"Y. c #F3F2E4",
"T. c #FFFEE2",
"R. c #FFFEED",
"E. c #E2F8FE",
"W. c #EAFAFF",
"Q. c #F0F3F5",
"!. c #FDFDF4",
"~. c #F3FCFE",
"^. c #FEFFFD",
"/. c None",
/* pixels */
"/./././././././././././././././././././././././././././././././.",
"/./././././././.+ + # + + + + + + + + + O /././././././././././.",
"/./././././././.+ ^.^.^.^.^.^.^.^.^.I.+ w o /./././././././././.",
"/./././././././.+ ^.^.^.^.^.^.^.^.^.f.+ Q.8 O /././././././././.",
"/./././././././.+ ^.~.^.^.~.~.~.~.^.s.+ ^.Q.i O /./././././././.",
"/./././././././.+ ^.~.~.^.^.^.^.^.^.d.+ ^.^.^.y /./././././././.",
"/./././././././.+ ~.~.E.x x x x x x 0.+ + # + + # /././././././.",
"/.+ + + + + + + + W.W.E.L.E.L.L.E.L.y.t : > > 8 + /././././././.",
"/.+ e.i.u.u.u.u.+ W.L.K.x x x x x x Z Z Z ^ ^ t.+ + + + /./././.",
"/.+ u.p.p.p.p.p.+ E.K.K.K.K.K.K.K.K.K.K.K.L.J.L.+ C C @ /./././.",
"/.+ u.p.p.p.p.p.+ K.H.B # # # # # # # # # # # # # # # @ + + @ /.",
"/.+ r.e.B 0 0 0 0 9 , + [ !.!.!.!.!.!.!.Q.!.!.^.!.!.~.b F.Z.+ /.",
"/.+ 9.V $ S { { { { { *.^.^.!.^.^.!.^.!.!.^.!.!.^.!.^.M F.F.+ /.",
"/.+ 9.v $ -.!.!.!.!.!.!.!.!.!.!.!.!.!.!.!.!.!.!.!.!.!.A G.F.+ /.",
"/.+ 9.v $ ] R.R.R.R.R.R.R.R.!.R.!.R.T.U.Y.q ' R.R.R.R.F G.S.+ /.",
"/.+ 9.v $ ] R.R.R.R.R.R.*.:.:.:.-.-.' K R + d ] T.C.C.J D.j.+ /.",
"/.+ q.v $ ] T.T.T.T.T.T.:.P.m.m.l.D.a.J H + $.3 ! C.C.R l.l.+ /.",
"/.+ 9.c $ _ V.V.C.C.C.C.=.m.l.g.l.k.;.D u + v.` 1 ! V.E m.h.+ /.",
"/.+ q.v $ ~ b.b.V.C.B.z.W + + + + + + + + + v.C.E 1 ! ! M.n.+ /.",
"/.+ q.v $ Q b.b.V.b.4.! e + v.V.V.V.V.V.V.v.v.b.T.R < D N.x.+ /.",
"/.+ w.m $ Q v.b.b.b.>.G s + 7.v.v.7.v.v.7.v.v.7.b.B.K = T c.+ /.",
"/.+ w.N ; U 6.7.7.v.&.k e + v.7.7.v.7.7.v.7.v.7.v.b.B.L < P + /.",
"/.+ w.N ; U 3.6.6.6.%.l 7 + 7.7.7.7.7.7.7.7.7.7.7.7.b.B.r = + /.",
"/.+ w.N % U 3.3.6.6.%.l 7 + 7.7.7.7.7.7.7.7.7.6.7.7.v.X.= 6 + /.",
"/.+ w.v % I 3.3.3.6.+.l 7 + 7.6.7.7.6.6.7.7.6.7.7.v.Q * 4 %.+ /.",
"/.+ q.v $ I 3.3.3.3.+.g 5 + 7.6.6.6.7.6.6.6.6.7.7.X.= 2 @.5.+ /.",
"/.+ 8.v $ I 3.3.3.3.#.g 5 + + + + + + + + + 6.7.o.= 2 +.3.<.+ /.",
"/.+ b , =  .2.2.2.2.#.z f f f f f f a p 5 + 6.O.- 2 ..2.1.l + /.",
"/.+ + + + + + + # + + O O O O O O O O X X + ,.- + + + + + + o /.",
"/./././.                                  + s o .           /./.",
"/././././.                                # @ .           /././.",
"/././././././././././././././././././././.O /./././././././././."
};
