/* XPM */
static char *help_xpm[] = {
/* columns rows colors chars-per-pixel */
"32 32 117 2 ",
"   c #0B0B0B",
".  c #141414",
"X  c #1C1C1C",
"o  c #242424",
"O  c #2C2C2C",
"+  c #333333",
"@  c #393936",
"#  c #3C3C3B",
"$  c #42423D",
"%  c #454545",
"&  c #4B4A42",
"*  c #4C4C4B",
"=  c #50504C",
"-  c #5D5D4B",
";  c #545452",
":  c #5B5B5B",
">  c #616049",
",  c #6A684E",
"<  c #606057",
"1  c #6C6C58",
"2  c #7E7D5C",
"3  c #656565",
"4  c #6B6B6B",
"5  c #7B7A61",
"6  c #74746F",
"7  c #737372",
"8  c #7B7B72",
"9  c #7D7D7D",
"0  c #807F63",
"q  c #888556",
"w  c #918F5A",
"e  c #8E8E6E",
"r  c #9E9B63",
"t  c #838272",
"y  c #8D8C76",
"u  c #88887F",
"i  c #908E76",
"p  c #9D9C78",
"a  c #A29F61",
"s  c #A7A467",
"d  c #AAA76A",
"f  c #A6A475",
"g  c #ABA877",
"h  c #A3A279",
"j  c #CDC978",
"k  c #D3CE7A",
"l  c #E3DE72",
"z  c #E6E275",
"x  c #E7E37E",
"c  c #ECE77B",
"v  c #848484",
"b  c #888887",
"n  c #878888",
"m  c #8B8B8B",
"M  c #949382",
"N  c #959594",
"B  c #9D9C96",
"V  c #989798",
"C  c #9B9B9B",
"Z  c #AFAD87",
"A  c #A3A394",
"S  c #BCBB91",
"D  c #A4A4A3",
"F  c #ACACA5",
"G  c #ACACAC",
"H  c #B0AFAF",
"J  c #B1B1A6",
"K  c #BCBCAF",
"L  c #AFAFB0",
"P  c #AFB0B0",
"I  c #B4B4B4",
"U  c #B7B8B7",
"Y  c #B8B8B0",
"T  c #BCBCBC",
"R  c #D5D38D",
"E  c #DDDB97",
"W  c #E9E581",
"Q  c #EDE880",
"!  c #E9E58C",
"~  c #EDEA8B",
"^  c #F0EC82",
"/  c #F2ED89",
"(  c #F6F18A",
")  c #EFEB93",
"_  c #EEEB9F",
"`  c #FAF592",
"'  c #FAF698",
"]  c #FEFA9C",
"[  c #D0CFAB",
"{  c #D6D5B0",
"}  c #D2D2BE",
"|  c #EEEBAA",
" . c #FFFCA3",
".. c #F1F0AA",
"X. c #F8F5AD",
"o. c #FFFCAA",
"O. c #EFECB1",
"+. c #F0EEBC",
"@. c #FFFEB2",
"#. c #C0BFC0",
"$. c #C3C3C3",
"%. c #C8C8C7",
"&. c #C7C7C8",
"*. c #C8C7C8",
"=. c #CBCBCB",
"-. c #DDDDCE",
";. c #E0E0C3",
":. c #E1E1CA",
">. c #FEFBC1",
",. c #FFFDCE",
"<. c #EDEDDB",
"1. c #FAF8D2",
"2. c #FFFFDD",
"3. c #F3F3E3",
"4. c #FFFFE4",
"5. c #FFFFEC",
"6. c None",
/* pixels */
"6.6.6.6.6.6.6.6.6.6.6.6.6.6.6.6.6.6.6.6.6.6.6.6.6.6.6.6.6.6.6.6.",
"6.6.6.6.6.6.6.6.6.6.6.6.6.6.6.6.6.6.6.6.6.6.6.6.6.6.6.6.6.6.6.6.",
"6.6.6.6.6.6.6.6.6.6.6.@ @ @ O + O @ + + 6.6.6.6.6.6.6.6.6.6.6.6.",
"6.6.6.6.6.6.6.6.6.O @ * 4 V L T T L N 3 % @ 6.6.6.6.6.6.6.6.6.6.",
"6.6.6.6.6.6.6.6.@ ; D $.*.T I G L P T =.#.V % @ 6.6.6.6.6.6.6.6.",
"6.6.6.6.6.6.@ @ m *.U D V v 4 3 3 4 9 V L T &.7 @ 6.6.6.6.6.6.6.",
"6.6.6.6.6.@ # D T D V 4 # < t M M t < # 4 C L $.m # 6.6.6.6.6.6.",
"6.6.6.6.6.@ D T D 9 @ y { +.O.| O.O.>.[ t @ v G T n @ 6.6.6.6.6.",
"6.6.6.6.@ 7 T D n $ S | ! l l l l l l ! | Z # n G T 3 O 6.6.6.6.",
"6.6.6.@ = U L D @ g | W z z z z z l c z c | g @ D U G + 6.6.6.6.",
"6.6.6.@ 9 I G v , ) W c c c c c c c c c c ! ~ > m G U 4 + 6.6.6.",
"6.6.O # D I G 3 a ^ ^ ^ ^ Q c q w Q ^ ^ ^ ^ / w 7 G U N @ 6.6.6.",
"6.6.O : I L G 3 d k k j j k r 4 $ j ( ( ( ( ( d 3 L I G % 6.6.6.",
"6.6.O 4 I P G V @ @ @ @ @ $ $ @ i X.` ` ` ` ` d 3 L L L ; 6.6.6.",
"6.O O 9 I I I I H L I H v 2 ,.1.>.o.] ] ' ] ' 2 n I U I 3 O 6.6.",
"6.O @ v U I I I I I I I v 0  . . . . . . . .R % G U U U 3 O 6.6.",
"6.O O v U U T T U T U T m 5 o. .o.o.o.o.o.E - v U T U U 3 O 6.6.",
"6.o O 7 U T T T T T T T m 5 @.@.@.@.@...h & v T T T T U : o 6.6.",
"6.6.O : U T T T T $.$.#.G & e p p e 1 $ 7 P #.#.#.#.T G * 6.6.6.",
"6.6.o % D T $.$.$.$.$.$.T v * @ # 4 C U $.#.$.$.$.#.T V @ 6.6.6.",
"6.6.X + n U &.&.$.%.$.I # u -.5.3.F ; v $.$.&.$.&.$.U 7 o 6.6.6.",
"6.6.6.O = L $.&.*.*.*.7 A 4.2.2.2.4.:.* I *.*.&.&.T G # X 6.6.6.",
"6.6.6.X O v U &.*.*.U = ;.2.2.2.2.2.2.M v *.=.*.$.U 3 O 6.6.6.6.",
"6.6.6.6.o # D U -.*.$.% } 4.4.4.4.4.4.8 V *.-.&.U n @ X 6.6.6.6.",
"6.6.6.6.6.O = V T &.=.V 7 <.5.5.5.5.I @ =.=.&.I v @ o 6.6.6.6.6.",
"6.6.6.6.6.. O # 9 L $.=.v ; V U F 6 @ G =.T D 4 + o 6.6.6.6.6.6.",
"6.6.6.6.6.6.  O O ; m D U G 9 4 7 C T U D 9 % @ o 6.6.6.6.6.6.6.",
"6.6.6.6.6.6.6.  o @ + % 3 9 m C V m 9 : * + O X 6.6.6.6.6.6.6.6.",
"6.6.6.6.6.6.6.6.6.. o @ O @ O @ @ @ O O O X   6.6.6.6.6.6.6.6.6.",
"6.6.6.6.6.6.6.6.6.6.6.  X o o O o o o . 6.6.6.6.6.6.6.6.6.6.6.6.",
"6.6.6.6.6.6.6.6.6.6.6.6.6.6.6.6.6.6.6.6.6.6.6.6.6.6.6.6.6.6.6.6.",
"6.6.6.6.6.6.6.6.6.6.6.6.6.6.6.6.6.6.6.6.6.6.6.6.6.6.6.6.6.6.6.6."
};
