/* XPM */
static char *info_xpm[] = {
/* columns rows colors chars-per-pixel */
"32 32 80 1",
"  c #060606",
". c gray6",
"X c #121212",
"o c #1B1B1B",
"O c #262626",
"+ c #2C2C2C",
"@ c #323232",
"# c #3C3C3C",
"$ c #464645",
"% c #494945",
"& c #4C4C4B",
"* c #56564E",
"= c #59594D",
"- c #555453",
"; c #5E5D54",
": c #5A5A5A",
"> c #646353",
", c #696854",
"< c #636359",
"1 c #69695C",
"2 c #6D6C6C",
"3 c #747474",
"4 c #7C7C7C",
"5 c #8B8A67",
"6 c #8D8C68",
"7 c #80807F",
"8 c #BAB87E",
"9 c #807F80",
"0 c #838383",
"q c #8D8C8C",
"w c #949394",
"e c #9C9C9C",
"r c #A09F9F",
"t c #A0A09F",
"y c #A09FA0",
"u c #A5A4A4",
"i c #A8A7A7",
"p c #ACABAB",
"a c #B0AFAF",
"s c #B0B0AF",
"d c #B0AFB0",
"f c #B4B3B3",
"g c #B8B7B7",
"h c #B8B8B7",
"j c #BBBBBB",
"k c #C1BF83",
"l c #C0BFBF",
"z c #BFC0BF",
"x c #C4C186",
"c c #CDCB97",
"v c #CECC98",
"b c #DEDB92",
"n c #D3D29C",
"m c #E0DC93",
"M c #F2EE95",
"N c #F2EF98",
"B c #C0C0BF",
"V c #E7E5AB",
"C c #E9E7B2",
"Z c #EAE8B7",
"A c #E4E2BA",
"S c #E8E7BD",
"D c #E9E8BC",
"F c #FAF7B7",
"G c #FBF9BB",
"H c #BFBFC0",
"J c #C0BFC0",
"K c #C5C4C4",
"L c #CCCCCC",
"P c #D0CFCF",
"I c #D0CFD0",
"U c #D3D3D3",
"Y c #D8D8D8",
"T c #F4F3C6",
"R c #F8F7C7",
"E c #FBF9C4",
"W c #F6F5C8",
"Q c #F8F7C8",
"! c #FBF9C9",
"~ c None",
/* pixels */
"~~~~~~~~~~~~~~~~~~~~~~~~~~~~~~~~",
"~~~~~~~~~~~~~~~~~~~~~~~~~~~~~~~~",
"~~~~~~~~~~~~@@@@@@@@~~~~~~~~~~~~",
"~~~~~~~~~~@:0uKYUKp0-@~~~~~~~~~~",
"~~~~~~~~@:wKKhituufBKw-@~~~~~~~~",
"~~~~~~~@3ghue6,%&:qeijf3@~~~~~~~",
"~~~~~~@4Kpeeq&68k6%qeral4@~~~~~~",
"~~~~~@2gptee3>MMMM>3rrepj2@~~~~~",
"~~~~~-udueue3,NMMM>3ueetau-~~~~~",
"~~~~@9fuuyuuq%pmbx%quuuuig7@~~~~",
"~~~~&pfuuuuuu0&$$&0uuuuuuap&~~~~",
"~~~+2apppupppiuewiipiipiipf2+~~~",
"~~~@0gppppppw#$-*$&eppppppg0@~~~",
"~~~@egsssfddq;ncvn&eddffffge@~~~",
"~~~@pgfffgffw;FFFV*effgfffgp@~~~",
"~~~@gghghhggw>GGGV*rggghhggf@~~~",
"~~~@pjjjjjjzw<EGEC;ujjjhjjju@~~~",
"~~~@wjKjKzzHe,EEEZ;uHHHKHKKw+~~~",
"~~~O3KKKKKKKe1!!ED;pKKHKKKK3O~~~",
"~~~~-jKKKKKKt1!QED;pLKKKKKj-~~~~",
"~~~~@qLLLLLLy1QQ!D<dLLLLLLq@~~~~",
"~~~~o:gLLLLLu1WWWA;fLLILLf:o~~~~",
"~~~~~+3LPUPPu1TTTA<fIIIUL3O~~~~~",
"~~~~~X@7PUUUu<ATDA;gUUUI9@~~~~~~",
"~~~~~~X@4jYUp@####$jYUj3@~~~~~~~",
"~~~~~~~XO:wIYYYYUYYYLe:O~~~~~~~~",
"~~~~~~~~~o@-0uHUUKu0:@X~~~~~~~~~",
"~~~~~~~~~~ o+@@@@@+OX~~~~~~~~~~~",
"~~~~~~~~~~~~~~~~~~~~~~~~~~~~~~~~",
"~~~~~~~~~~~~~~~~~~~~~~~~~~~~~~~~",
"~~~~~~~~~~~~~~~~~~~~~~~~~~~~~~~~",
"~~~~~~~~~~~~~~~~~~~~~~~~~~~~~~~~"
};
