/* XPM */
static char *new_xpm[] = {
/* columns rows colors chars-per-pixel */
"32 32 180 2",
"   c #2C2C2C",
".  c gray18",
"X  c #2F2F2F",
"o  c gray19",
"O  c #313131",
"+  c #323232",
"@  c gray20",
"#  c #353532",
"$  c #373736",
"%  c #373737",
"&  c #393933",
"*  c #383837",
"=  c gray22",
"-  c #393939",
";  c #3A3A3A",
":  c #706D33",
">  c #716E33",
",  c #414141",
"<  c #4E4E4E",
"1  c #52524F",
"2  c #4C5154",
"3  c #535353",
"4  c #54595D",
"5  c #5D5D5D",
"6  c #5F6366",
"7  c #7C7E7F",
"8  c #827F3B",
"9  c #9C9847",
"0  c #8E8C5A",
"q  c #8F8D5A",
"w  c #8F8D5B",
"e  c #A29D49",
"r  c #B1AC50",
"t  c #818077",
"y  c #828178",
"u  c #86857B",
"i  c #ADAA6E",
"p  c #ADAA6F",
"a  c #A2A193",
"s  c #A0A094",
"d  c #A3A296",
"f  c #A5A495",
"g  c #B3B2A2",
"h  c #EEEA9A",
"j  c #EEEB9A",
"k  c #EFEB9D",
"l  c #EFEB9F",
"z  c #EFEC9D",
"x  c #EFEBA2",
"c  c #EFECA0",
"v  c #EFECA2",
"b  c #EFECA6",
"n  c #EFECA9",
"m  c #EFECAA",
"M  c #EFECAD",
"N  c #EFECAE",
"B  c #FDF9A4",
"V  c #FDFAA4",
"C  c #FDFAA5",
"Z  c #FFFBA7",
"A  c #FFFCA7",
"S  c #FFFBA8",
"D  c #FFFBAA",
"F  c #FFFBAB",
"G  c #FFFCA8",
"H  c #FFFCAA",
"J  c #FFFCAB",
"K  c #FFFCAD",
"L  c #FFFCAE",
"P  c #EFECB1",
"I  c #EFEDB1",
"U  c #EFECB5",
"Y  c #EFEDB9",
"T  c #EFEDBD",
"R  c #EFEDBE",
"E  c #FFFBB1",
"W  c #FFFCB1",
"Q  c #FFFBB5",
"!  c #FFFCB4",
"~  c #FFFCB5",
"^  c #FFFCB8",
"/  c #FFFCB9",
"(  c #FFFCBD",
")  c #FFFDBD",
"_  c #DCDBC4",
"`  c gray85",
"'  c #E1DFC8",
"]  c #EFEDC1",
"[  c #EFEDC5",
"{  c #EFEDC6",
"}  c #E1E0C8",
"|  c #E1E0C9",
" . c #E2E0C9",
".. c #E1E0CF",
"X. c #EFEDC9",
"o. c #EFEDCA",
"O. c #EFEECD",
"+. c #EFEDCE",
"@. c #FFFDC0",
"#. c #FFFCC1",
"$. c #FFFDC1",
"%. c #FFFCC5",
"&. c #FFFDC5",
"*. c #FFFDC6",
"=. c #FFFCC9",
"-. c #FFFDC9",
";. c #FFFCCA",
":. c #FFFDCA",
">. c #FFFCCE",
",. c #FFFDCE",
"<. c #E1E1D6",
"1. c #E9E7D0",
"2. c #EFEDD1",
"3. c #EFEED1",
"4. c #EFEED4",
"5. c #E1E0D9",
"6. c #E1E1DB",
"7. c #EFEED8",
"8. c #EFEEDC",
"9. c #FFFDD2",
"0. c #FFFDD3",
"q. c #FFFED2",
"w. c #FFFED3",
"e. c #FFFDD6",
"r. c #FFFDD7",
"t. c #FFFED6",
"y. c #FFFED7",
"u. c #F8F7DD",
"i. c #FFFDDA",
"p. c #FFFDDB",
"a. c #FFFEDA",
"s. c #FFFEDB",
"d. c #FFFDDF",
"f. c #FFFEDF",
"g. c #D9E1E5",
"h. c #D9E0E6",
"j. c #E6E6E2",
"k. c #EFEEE0",
"l. c #EFEEE3",
"z. c #EFEFE6",
"x. c #EFEFE9",
"c. c #EFEFEB",
"v. c #E8EBEE",
"b. c #FFFEE0",
"n. c #FFFDE3",
"m. c #FFFEE3",
"M. c #FFFDE4",
"N. c #FFFEE4",
"B. c #FFFEE7",
"V. c #F0F0EF",
"C. c #FFFEEB",
"Z. c #FFFFEB",
"A. c #FFFEEC",
"S. c #FFFEEF",
"D. c #FFFFEF",
"F. c #EFEFF0",
"G. c #F3F3F2",
"H. c #F4F5F5",
"J. c #F6F5F6",
"K. c #FFFEF2",
"L. c #FFFFF2",
"P. c #FFFEF3",
"I. c #FFFFF3",
"U. c #FFFEF6",
"Y. c #FFFFF6",
"T. c #F8F8F9",
"R. c #F9F9F9",
"E. c #FBFBFB",
"W. c #FFFEF8",
"Q. c #FFFFF8",
"!. c #FFFFF9",
"~. c #FFFFFB",
"^. c gray99",
"/. c #FDFDFD",
"(. c #FFFFFC",
"). c #FFFFFD",
"_. c #FFFFFE",
"`. c #FFFEFF",
"'. c gray100",
"]. c None",
/* pixels */
"].].].].].].].].].].].].].].].].].].].].].].].].].].].].].].].].",
"].].].].@ @ @ @ $ $ @ @ @ @ $ $ @ @ @ @ @ @ ].].].].].].].].].].",
"].].].].# R.^.^.^.^.^.^.^.^.^.^.^.^.^.R., 2 @ ].].].].].].].].].",
"].].].].@ G.^.^.^.^.^.^.^.^.^.^.^.^.^.G.; h.4 @ ].].].].].].].].",
"].].].].@ c.^.~.~.~.~.^.~.~.~.~.^.^.~.j.- ^.g.6 @ ].].].].].].].",
"].].].].@ x.U.~.~.U.U.U.U.U.~.U.~.~.~.5.- R.^.F.7 % ].].].].].].",
"].].].].@ z.U.U.U.U.U.U.U.U.U.U.U.U.U.5.- H.^.^.H.5 < ].].].].].",
"].].].].@ l.L.L.L.L.L.L.L.U.L.L.L.L.L.<.$ F.R.R.^.` 3 @ ].].].].",
"].].].].@ l.S.S.r r r r r r r r r r r 9 & # # # - * 1 @ ].].].].",
"].].].].@ 8.C.C.C.S.C.C.C.S.C.C.C.C.C...s y t t t u s . ].].].].",
"].].].].@ 7.B.C.r r r r r r r r r r r e 8 > : : a f g . ].].].].",
"].].].].@ 4.b.b.B.b.B.b.b.B.M.b.B.b.B.u.1. .' '  . ._ @ ].].].].",
"].].].].@ 2.b.b.r r r r r r r r r r r r r r r r b.b.2.@ ].].].].",
"].].].].@ O.a.a.a.a.a.a.p.p.a.a.a.a.s.a.a.a.a.a.a.s.O.@ ].].].].",
"].].].].@ X.r.r.r r r r r r r r r r r r r r r r r.r.X.@ ].].].].",
"].].].].@ { 9.9.r.9.9.9.9.r.9.9.9.9.9.r.9.r.9.9.9.9.{ @ ].].].].",
"].].].].@ ] ,.9.r r r r r r r r r r r r r r r r 9.,.] @ ].].].].",
"].].].].@ T -.-.-.-.-.-.;.;.-.-.-.-.-.-.-.-.-.-.-.-.T @ ].].].].",
"].].].].@ Y %.%.r r r r r r r r r r r r r r r r %.%.Y @ ].].].].",
"].].].].@ U #.#.#.#.#.#.#.#.#.#.#.#.#.#.#.#.#.#.#.#.U @ ].].].].",
"].].].].@ P ( ( r r r r r r r r r r r r r r r r ( ( P @ ].].].].",
"].].].].@ M ^ ^ ^ ^ ^ ^ ^ ^ ^ ^ ^ ^ ^ ^ ^ ^ ^ Q ^ ^ M @ ].].].].",
"].].].].@ n ~ ~ r r r r r r r r r r r r r r r r ~ ~ n @ ].].].].",
"].].].].@ b ! W W W W ~ ! W W W W W W W ! W ! ! W W b @ ].].].].",
"].].].].@ c L L r r r r r r r r r r r r r r r r L L x @ ].].].].",
"].].].].@ c J L F D D F F F D J L D J J D D D D D D k @ ].].].].",
"].].].].@ j Z J Z Z Z Z D Z Z A Z A A A A Z Z Z D Z k @ ].].].].",
"].].].].@ j V V B B B B B B B B B B B B B B B B V V j @ ].].].].",
"].].].].@ p 0 0 0 0 0 0 0 0 0 0 0 0 0 0 0 0 0 0 0 0 p @ ].].].].",
"].].].].  @ @ @ @ @ @ @ @ @ @ @ @ o @ @ @ @ @ @ @ @ @ . ].].].].",
"].].].].].].].].].].].].].].].].].].].].].].].].].].].].].].].].",
"].].].].].].].].].].].].].].].].].].].].].].].].].].].].].].].]."
};
