/* XPM */
static char *open_xpm[] = {
/* columns rows colors chars-per-pixel */
"32 32 236 2",
"   c black",
".  c gray8",
"X  c gray10",
"o  c #202020",
"O  c #222222",
"+  c #2C2C2C",
"@  c #2D2D2D",
"#  c #323232",
"$  c gray20",
"%  c #373737",
"&  c gray22",
"*  c #393939",
"=  c #3A3A3A",
"-  c #3C3C3C",
";  c gray24",
":  c #3F3F3F",
">  c #353F42",
",  c #2B464D",
"<  c #344042",
"1  c #394040",
"2  c #384041",
"3  c #3E4141",
"4  c #3E4343",
"5  c #384548",
"6  c #3B4848",
"7  c #3D494B",
"8  c #384C4D",
"9  c #3E4E52",
"0  c #3D5055",
"q  c #414141",
"w  c #4B4B4B",
"e  c #515151",
"r  c gray37",
"t  c #5F5F5F",
"y  c #4A6368",
"u  c #4A6D73",
"i  c #4E6D71",
"p  c #4D7075",
"a  c #686868",
"s  c gray45",
"d  c #767676",
"f  c gray48",
"g  c #1991AF",
"h  c #3D98AF",
"j  c #5397A5",
"k  c #5198A8",
"l  c #53A8BB",
"z  c #0BB0D8",
"x  c #10BDE3",
"c  c #30B9F9",
"v  c #5DAFC1",
"b  c #5DBBC0",
"n  c #55B7CF",
"m  c #76BECC",
"M  c #18C5E7",
"N  c #22CBEA",
"B  c #34C0E4",
"V  c #2CD4EE",
"C  c #36C5FD",
"Z  c #36C5FE",
"A  c #36DCF2",
"S  c #47C1DE",
"D  c #7CC5D2",
"F  c #41C1E0",
"G  c #4BC2E0",
"H  c #4DC3E0",
"J  c #4FC5E0",
"K  c #4FCAE8",
"L  c #55C7E2",
"P  c #58C7E1",
"I  c #53CDEB",
"U  c #42D1FE",
"Y  c #43D2FE",
"T  c #43D4FF",
"R  c #4ADBFF",
"E  c #4EDBFC",
"W  c #4BDCFF",
"Q  c #4EDEFE",
"!  c #4EDFFF",
"~  c #6DD3EC",
"^  c #72D5EB",
"/  c #64DFF2",
"(  c #6ADCF1",
")  c #6EDDF2",
"_  c #55E1ED",
"`  c #5FE3EE",
"'  c #47E2F0",
"]  c #40E3F6",
"[  c #51E1FF",
"{  c #53E4FF",
"}  c #69E5EF",
"|  c #68E5F0",
" . c #6AE5F0",
".. c #6CE5F1",
"X. c #7AE0F2",
"o. c #7AECF6",
"O. c #818181",
"+. c #838383",
"@. c gray52",
"#. c gray55",
"$. c #8E8E8E",
"%. c gray58",
"&. c gray60",
"*. c #9A9A9A",
"=. c #9B9B9B",
"-. c gray61",
";. c #9D9D9D",
":. c #9F9F9F",
">. c #A0A0A0",
",. c gray63",
"<. c #A2A2A2",
"1. c #A5A5A5",
"2. c gray66",
"3. c #AAAAAA",
"4. c gray67",
"5. c #AEAEAE",
"6. c #AFAFAF",
"7. c gray69",
"8. c #B1B1B1",
"9. c gray70",
"0. c #B6B6B6",
"q. c #B9B9B9",
"w. c gray73",
"e. c #BBBBBB",
"r. c gray74",
"t. c #86C0C4",
"y. c #8CC6CB",
"u. c #85CBD8",
"i. c #94CBD3",
"p. c #91CDD5",
"a. c #A1D2D9",
"s. c #8EDFF0",
"d. c #8EDFF1",
"f. c #90DFF0",
"g. c #94E1EF",
"h. c #99E2EF",
"j. c #84E5F5",
"k. c #88E3F3",
"l. c #8DE1F2",
"z. c #8EE1F3",
"x. c #8CE3F3",
"c. c #91E0F0",
"v. c #91E1F1",
"b. c #92E1F2",
"n. c #90E2F3",
"m. c #94E3F3",
"M. c #90E3F4",
"N. c #92E3F4",
"B. c #99E1F0",
"V. c #99E2F2",
"C. c #99E4F0",
"Z. c #9BE4F0",
"A. c #99E4F3",
"S. c #9FE4F3",
"D. c #98E5F4",
"F. c #9CEDF8",
"G. c #94F4FB",
"H. c #99F0FA",
"J. c #A2E6F0",
"K. c #A0E6F2",
"L. c #A6E7F3",
"P. c #A6E6F5",
"I. c #A5E9F3",
"U. c #A9E8F4",
"Y. c #A9E9F5",
"T. c #ABE9F5",
"R. c #A9EDF7",
"E. c #B2EAF5",
"W. c #B1EAF6",
"Q. c #B6EFF7",
"!. c #BCEFF7",
"~. c #B4EEF8",
"^. c #B4EFF8",
"/. c #B3F3F8",
"(. c #DFDFDF",
"). c #C4F0F7",
"_. c #C9F0F7",
"`. c #CEF1F7",
"'. c #C5F7FC",
"]. c #CEF2F9",
"[. c #CDF7F9",
"{. c #D3F6F9",
"}. c #D0F6FB",
"|. c #D2F6FA",
" X c #D3F7FB",
".X c #D4F4F9",
"XX c #D6F5FA",
"oX c #D7F5FB",
"OX c #D7F6FB",
"+X c #D8F5F9",
"@X c #D9F5FA",
"#X c #DAF5FA",
"$X c #D9F7FB",
"%X c #DDF6F9",
"&X c #D1F8FD",
"*X c #D2F8FD",
"=X c #D4F9FC",
"-X c #D7F8FC",
";X c #D8F8FC",
":X c #DBF9FC",
">X c #DAFAFC",
",X c gray88",
"<X c #E1E1E1",
"1X c #E2E2E2",
"2X c gray89",
"3X c #E4E4E4",
"4X c gray90",
"5X c #E6E6E6",
"6X c #E7E7E7",
"7X c gray91",
"8X c #E9E9E9",
"9X c #EAEAEA",
"0X c gray92",
"qX c #ECECEC",
"wX c gray93",
"eX c #EEEEEE",
"rX c #EFEFEF",
"tX c #E5F7FC",
"yX c #E9FBFD",
"uX c gray94",
"iX c #F1F1F1",
"pX c gray95",
"aX c #F3F3F3",
"sX c #F4F4F4",
"dX c gray96",
"fX c #F6F6F6",
"gX c gray97",
"hX c #F8F8F8",
"jX c #F9F9F9",
"kX c gray98",
"lX c #FBFBFB",
"zX c gray99",
"xX c #FDFDFD",
"cX c #FEFEFE",
"vX c gray100",
"bX c None",
/* pixels */
"bXbXbXbXbXbXbXbXbXbXbXbXbXbXbXbXbXbXbXbXbXbXbXbXbXbXbXbXbXbXbXbX",
"bXbXbXbXbXbXbXbX$ # bXbXbXbXbXbXbXbXbXbXbXbXbXbXbXbXbXbXbXbXbXbX",
"bXbXbXbXbXbXbX# p i bXbXbXbXbXbXbXbXbXbXbXbXbXbXbXbXbXbXbXbXbXbX",
"bXbXbXbXbXbX# 0 u.p.7 bXbXbXbXbXbXbXbXbXbXbXbXbXbXbXbXbXbXbXbXbX",
"bXbXbXbXbXbX9 D U.@Xa.6 bXbXbXbXbXbXbXbXbXbXbXbXbXbXbXbXbXbXbXbX",
"bXbXbXbX# 5 m J.I.XXtXi.2 # $ $ $ $ $ $ $ $ $ # $ # bXbXbXbXbXbX",
"bXbXbX# < v B.Z.U.].%X:Xy.2 7.cXcXcXcXcXcXcXcXq k = bXbXbXbXbXbX",
"bXbX# > h ^ c.Z.U.`.@XXX[.t.4 7.cXcXcXcXcXcXcX; Q l = bXbXbXbXbX",
"bX# , g c ^ g.h.J._.%X{./.G.b 8 ,.cXcXcXcXcXcX; W [ n 3 bXbXbXbX",
"bX# $ $ $ I s.g.J.).+X{.o.$ $ $ w cXcXcXcXcXcX; Y Q { I y bXbXbX",
"bXbX. O $ B d.c.h.!.+X{. .$ a @.2.iXcXcXcXcXcX; Z T Q { j q bXbX",
"bXbXbXX # G c.l.M.Q.=X{. .$ e t s $.*.*.*.*.*.= c Z Y R E u # bX",
"bXbXbXO # G m.d.x./.-X&X} $ f &.1.0.r.r.r.r.r.q = = ; ; ; t # bX",
"bXbXbXbX# H P.M.k./.:X&X} $ 0.sXkXcXcXcXcXcXcXcXcXcXcXcXcXcX$ bX",
"bXbXbXbX$ L P.N.X.R.yX:X} # q.kXcXcXcXcXcXcXcXcXcXcXcXcXcXcX$ bX",
"bXbXbXbX$ L T.Z.) j.|.'.| # d *.;.;.;.;.;.;.;.;.;.,.cXcXcXcX$ bX",
"bXbXbXbX$ P W.M.( | F.H._ # +.6.8.8.8.8.8.8.8.8.8.0.cXcXcXcX$ bX",
"bXbXbXbX$ z x M N V A ] ' # w.kXcXcXcXcXcXcXcXcXcXcXcXcXcXcX$ bX",
"bXbXbXbX# # # # # # = $ $ = w.kXcXcXcXcXcXcXcXcXcXcXcXcXcXcX$ bX",
"bXbXbXbXbXbXbXbX  X f +.+.;.#.1.2.2.2.2.2.2.2.2.2.6.cXcXcXkX$ bX",
"bXbXbXbXbXbXbXbXbXO <.<.,.0.%.1.2.2.2.2.2.2.1.2.2.2.kXkXfXfX# bX",
"bXbXbXbXbXbXbXbXbX@ (.2X2X4XfXcXcXcXcXcXcXcXcXkXkXkXfXfXfXiX# bX",
"bXbXbXbXbXbXbXbXbX# hXkXkXcXcXcXcXcXkXkXcXkXkXfXfXfXiXfXiXwX$ bX",
"bXbXbXbXbXbXbXbXbX# fXhXfXfX6.6.6.6.6.6.6.6.6.6.6.6.iXwXwX0X$ bX",
"bXbXbXbXbXbXbXbXbX$ fXfXfXfX;.;.;.;.;.;.;.*.;.*.;.;.0X0X0X0X# bX",
"bXbXbXbXbXbXbXbXbX$ iXiXfXiXfXiXfXiXiXwXiXiXwX0XwXwX0X0X4X4X# bX",
"bXbXbXbXbXbXbXbXbX$ wXwXwXwXiXiXwXiXwXiXwXwX0X0X0X4X0X4X4X4X# bX",
"bXbXbXbXbXbXbXbXbX$ wX0XwXwXwXwXwXwXwX0X0X0X0X4X4X4X4X2X2X2X$ bX",
"bXbXbXbXbXbXbXbXbX# wXwX0XwX0XwX0X0X0X0X0X0X4X0X0X4X2X4X2X2X# bX",
"bXbXbXbXbXbXbXbXbX+ # # # # # $ # # $ # $ # $ $ # $ # # # # + bX",
"bXbXbXbXbXbXbXbXbXbXbXbXbXbXbXbXbXbXbXbXbXbXbXbXbXbXbXbXbXbXbXbX",
"bXbXbXbXbXbXbXbXbXbXbXbXbXbXbXbXbXbXbXbXbXbXbXbXbXbXbXbXbXbXbXbX"
};
