/* XPM */
static char *pack_xpm[] = {
/* columns rows colors chars-per-pixel */
"32 32 75 1",
"  c gray18",
". c #333333",
"X c #393939",
"o c #42423F",
"O c #444543",
"+ c #4A4A45",
"@ c #4E4E4B",
"# c #51514B",
"$ c #555555",
"% c #575857",
"& c #5E5E5E",
"* c #62625C",
"= c #6D6C5D",
"- c #646464",
"; c #6F6F61",
": c #6C6B6C",
"> c #757474",
", c #7B7A74",
"< c #777778",
"1 c #7E7E7E",
"2 c #807F7F",
"3 c #7F807F",
"4 c #8F8E6F",
"5 c #8D8C71",
"6 c #80807F",
"7 c #8F8E7B",
"8 c #7F8080",
"9 c #838382",
"0 c #888787",
"q c #8B8B8B",
"w c #939393",
"e c #989798",
"r c #9C9C9C",
"t c #AEAD8D",
"y c #B2B18A",
"u c #B0AF97",
"i c #B4B392",
"p c #B8B69A",
"a c #A2A2A2",
"s c #A7A7A8",
"d c #AAAAAA",
"f c #B4B4B4",
"g c #B7B8B7",
"h c #BCBCBC",
"j c #C5C39A",
"k c #D1CFA2",
"l c #D6D4AB",
"z c #D8D5AA",
"x c #DDDBB4",
"c c #DEDDB8",
"v c #F1EEA6",
"b c #F2EFAC",
"n c #F7F4AA",
"m c #FFFCAF",
"M c #E3E2BC",
"N c #EDEBBD",
"B c #F2EFB7",
"V c #FFFCB1",
"C c #F5F3BB",
"Z c #FFFCB9",
"A c #C3C4C4",
"S c #CCCCCC",
"D c #D0CFCF",
"F c #D0D0CF",
"G c #D4D4D4",
"H c #DBDBDB",
"J c #F2EFC1",
"K c #F2F0C0",
"L c #F8F5C3",
"P c #FFFDC3",
"I c #F2F1C8",
"U c #FFFDCB",
"Y c #FFFDD3",
"T c #FFFEE3",
"R c None",
/* pixels */
"RRRRRRRRRRRRRRRRRRRRRRRRRRRRRRRR",
"RRRRRRRRRRRRRRRRRRRRRRRRRRRRRRRR",
"RR..XX..X....X.X.X..X....X.X..RR",
"RR.AHHHHHHHHHHHHHHHHHHHHHHHHA.RR",
"RR.eererereereerrrererrereeee.RR",
"RR.errrrrrrararrrrrrrrrrrrare.RR",
"RR.errarraararrrararaarrrarae.RR",
"RR.eaaaaraaraaa<Xwaaaraaaaaar.RR",
"RR.aaaaaaaaaaaa:iXwaaaaaaaaaa.RR",
"RR assassassasa&PMXwassaaaasa RR",
"RR.asssssdssssa&nUMXwsdssdssa.RR",
"RR.sdreeeeeeeew%vVZMXwdddddds.RR",
"RR.sd...........ZVVCcOwdddddd.RR",
"RRXdsXUTTYTTTTTYPVVVPYOqffffd.RR",
"RR.daXvVVVVVVVVVVVVVVPY@qffff.RR",
"RR.fa.bZZZZZZZZZZZZVZVUYO0gff.RR",
"RR.fa.BPPPPPZPPPPPPPPPZYU@wgf.RR",
"RR.gsXJUUUUUUUPPUPUUUULkjoqhg.RR",
"RR.hs.JYUYYYYUUPUUUUUMj5O>ahh.RR",
"RR.hdXu77777745ulUUYJj;O:9shh.RR",
"RR.AdX..........lUUxi;@>qshAA.RR",
"RR.Af1---------XJUxi+&<wfASSA.RR",
"RR.Agw913183881$JxiO-1rgASSSA.RR",
"RR.SShffgfggffs&li#:0shSSGGSS.RR",
"RR.SSGGSGGDGDDA1t*>qfAFGGGGGS.RR",
"RRXSGGGGGGGGGGAa,<egSGGGGGGGS.RR",
"RR.SGGGHGGGGGGDfeshGGGGGGGHGS.RR",
"RR.GHHHGHHHGHHGSlAGHHGHGHGHGG.RR",
"RR.faraaaaaaaaaaraaaaraaaraaf.RR",
"RR ......... ..X  . ......... RR",
"RRRRRRRRRRRRRRRRRRRRRRRRRRRRRRRR",
"RRRRRRRRRRRRRRRRRRRRRRRRRRRRRRRR"
};
