/* XPM */
static char *page_xpm[] = {
/* columns rows colors chars-per-pixel */
"32 32 102 2",
"   c #000000",
".  c #242424",
"X  c #3C3635",
"o  c #3F3D3D",
"O  c #473532",
"+  c #4C3C3A",
"@  c #683831",
"#  c #703933",
"$  c #7B3B33",
"%  c #3E636B",
"&  c #464647",
"*  c #4B4B4B",
"=  c #534F4F",
"-  c #4B5355",
";  c #555555",
":  c #5E5B5A",
">  c #614845",
",  c #6A4844",
"<  c #714C46",
"1  c #675757",
"2  c #6F5756",
"3  c #755D5E",
"4  c #535F65",
"5  c #666D6E",
"6  c #696969",
"7  c #796262",
"8  c #776C6A",
"9  c #6E7070",
"0  c #757575",
"q  c #7D7170",
"w  c #7E7A75",
"e  c #7B7B7A",
"r  c #89382D",
"t  c #823C35",
"y  c #AC3B2B",
"u  c #BD3F2D",
"i  c #AB3D31",
"p  c #B63E31",
"a  c #C0402E",
"s  c #EF4735",
"d  c #F14734",
"f  c #FF4934",
"g  c #B65950",
"h  c #816868",
"j  c #D9675C",
"k  c #D96A5F",
"l  c #ED6053",
"z  c #EF7265",
"x  c #FF7265",
"c  c #82817F",
"v  c #487C86",
"b  c #6E7C80",
"n  c #48838F",
"m  c #758187",
"M  c #7B898D",
"N  c #7F8D90",
"B  c #4B92A0",
"V  c #42A3B7",
"C  c #2DA4D4",
"Z  c #3BBFE8",
"A  c #47B8D2",
"S  c #3DC0E8",
"D  c #44C9E8",
"F  c #51DAF2",
"G  c #4DE1FF",
"H  c #52E1FB",
"J  c #838383",
"K  c #8C8C8C",
"L  c #A2A2A2",
"P  c #ACABAB",
"I  c #B0B0AF",
"U  c #AEB0B0",
"Y  c #B5B5B5",
"T  c #B8B7B7",
"R  c #B7B8B8",
"E  c #BBBBBB",
"W  c #BFC0C0",
"Q  c #C4C4C4",
"!  c #C8C7C7",
"~  c #C7C8C7",
"^  c #C7C8C8",
"/  c #CCCCCC",
"(  c #CED0D0",
")  c #D3D4D4",
"_  c #D7D8D7",
"`  c #D7D8D8",
"'  c #DBDCDB",
"]  c #DFE0DF",
"[  c #DFE0E0",
"{  c #E3E4E4",
"}  c #E7E8E7",
"|  c #E8E7E8",
" . c #E7E8E8",
".. c #EBEBEB",
"X. c #F0EDE8",
"o. c #EFF0EF",
"O. c #F6F2ED",
"+. c #EEEFF0",
"@. c #F3F3F4",
"#. c #F9F7F6",
"$. c #FDFDFD",
"%. c None",
/* pixels */
"%.%.%.%.%.%.%.%.%.%.%.%.%.%.%.%.%.%.%.%.%.%.%.%.%.%.%.%.%.%.%.%.",
"%.%.%.%.%.%.6 T T E T T T T T E T T T 5 % & %.%.%.%.%.%.%.%.%.%.",
"%.%.%.%.%.%.e $.$.$.$.$.$.$.$.$.$.$.$.N A n * %.%.%.%.%.%.%.%.%.",
"%.%.%.%.%.%.0 #.$.$.$.$.$.$.$.$.$.$.$.M D F B - %.%.%.%.%.%.%.%.",
"%.%.%.%.%.%.e @.#.$.$.$.$.$.$.$.$.$.$.M Z G G v ; %.%.%.%.%.%.%.",
"%.%.%.%.%.%.0 +.#.#.+.+.@.@.@.@.#.#.#.b C S D V - %.%.%.%.%.%.%.",
"%.%.%.%.%.%.0 ..@...P L L L L L L L L 0 4 b M K 5 1 h h 2 %.%.%.",
"%.%.%.%.%.%.0 ..+...) ) ) ) _ _ ` ` ' ' ' @.$.$.I g x x l # %.%.",
"%.o 7 h h 3 0 { ..X.@.@.@.#.#.$.$.$.$.$.$.$.$.$.P p f f f r %.%.",
"%.+ k z z j q { ..{ R Y Y Y R R E E E E E ..$.$.Y i d d d $ %.%.",
"%.O y u u y 8 { | { R Y Y Y T T T R E E E { $.$.P r a u u @ %.%.",
"%.X , < < , : J K J J K K J K K K K K K K K K K 0 = < < < + %.%.",
"%.* ( / ( ` Q / / ^ ) / / ) ! ( ) Q ) / / ) ^ / ~ ^ ) ( ` e %.%.",
"%.= ) P U Q L E W P Q Y I ! L E E P Q Y T ^ P E T P ~ Y Q J %.%.",
"%.* ` Y Y ^ L E Q P / Y Y / P W Q P ^ E R ^ P Q R P ^ T ^ J %.%.",
"%.* ` T Y / L Q Q I / E R / P Q Q I / E E / Y Q E P / E / J %.%.",
"%.* ' E E ) P ~ ^ T ) E E ) Y ^ / Y ) W Q ) T / Q Y ) W / J %.%.",
"%.* ' E E _ P / ( E ' Q Q ) Y / ( T ' Q Q ' E / ! Y ' Q ) J %.%.",
"%.* ' Q Q ' Y / ) E ' ^ Q ' R ) ) E ' ! ^ ' E ) ! E ' Q ) J %.%.",
"%.* ] Q Q ' T ) ) Q ' ^ / ' E ) ) W ' / / ' Q ) / E ' / ) J %.%.",
"%.* ] ^ ^ ] E ) ` Q ] ( / ] Q ` _ Q ] ( ( ] ! _ / Q { ( ` J %.%.",
"%.* ] ) ) { Q ` ] ( { ) ` { ^ ' ] / { ) ) { ( ' ) / { ) ] J %.%.",
"%.* { _ `  ./ ' { _ ..' '  .) { { ) ..' ' | _ { ` ) { ' { J %.%.",
"%.* { ' ' ..) { { ' | { ] ..` { { ' ..] { ..' { ' ' ..] ..J %.%.",
"%.& ' { { ..{ ..} [ +.{ }  .] |  .[  .} } ..{  ...{ ..{ ..e %.%.",
"%.& ` ..| X. ...+. .+. ...+.{ .... .+... .+. ..... .......e %.%.",
"%.& ` ....+...+.+...+.+.+.+...+.+.+.@.+.+.@.+.+.@...@.+.o.c %.%.",
"%.* ' @.+.@.+.+.@.+.@.@.+.@.@.@.@.@.@.@.@.@.@.@.@.@.@.@.O.h %.%.",
"%.o Q @.#.#.#.#.#.#.#.#.#.#.#.#.#.#.$.#.#.$.#.#.#.#.#.#.#.c %.%.",
"%.. ; 0 0 0 0 0 0 e 0 0 0 0 0 e 0 0 0 0 0 e 0 0 9 0 e e c : %.%.",
"%.%.                                                    %.%.%.%.",
"%.%.%.%.%.%.%.%.%.%.%.%.%.%.%.%.%.%.%.%.%.%.%.%.%.%.%.%.%.%.%.%."
};
