/* XPM */
static char *save_exit_xpm[] = {
/* columns rows colors chars-per-pixel */
"32 32 82 1",
"  c #0E0E0D",
". c #151615",
"X c #1C1C1C",
"o c #20211F",
"O c #232323",
"+ c #2B2B2B",
"@ c #333333",
"# c #393434",
"$ c #3D3D3D",
"% c #453434",
"& c #4C3535",
"* c #423F3F",
"= c #523737",
"- c #5E3333",
"; c #583838",
": c #613535",
"> c #6D3232",
", c #6F3939",
"< c #733434",
"1 c #783737",
"2 c #783838",
"3 c #444343",
"4 c #4C4C4C",
"5 c #534949",
"6 c #5B4C4C",
"7 c #535353",
"8 c #5A5A5A",
"9 c #644A4A",
"0 c #646463",
"q c #69696A",
"w c #776161",
"e c #7B6565",
"r c #7E6969",
"t c #737373",
"y c #7B7B7B",
"u c #CB3F3F",
"i c #FF2E2E",
"p c #E93D3D",
"a c #FF3333",
"s c #FF3C3C",
"d c #864E4E",
"f c #884F4F",
"g c #855454",
"h c #8D5454",
"j c #8D5A5A",
"k c #985C5C",
"l c #956464",
"z c #9D6161",
"x c #9F6868",
"c c #D94343",
"v c #E94848",
"b c #FF4444",
"n c #FE4C4C",
"m c #FF5656",
"M c #FF5A5A",
"N c #FF6B6B",
"B c #FF7777",
"V c #FF7B7B",
"C c #848484",
"Z c #888787",
"A c #8B8B8B",
"S c #939393",
"D c #9C9C9C",
"F c #A4A4A4",
"G c #ABABAB",
"H c #B4B4B4",
"J c #B7B8B7",
"K c #BCBCBC",
"L c #FF8F8F",
"P c #FF9292",
"I c #FF9B9B",
"U c #F6A3A3",
"Y c #FDA4A4",
"T c #FFAAAA",
"R c #C6C6C6",
"E c #C7C7C8",
"W c #CBCBCB",
"Q c #CFD0D0",
"! c #D4D4D4",
"~ c #DBDBDB",
"^ c #E5E5E5",
"/ c None",
/* pixels */
"////////////////////////////////",
"////////////////////////////////",
"/////////////@@#@@@/////////////",
"//////////#4qZDGGDC03@//////////",
"////////@4SJERRRREREHZ3@////////",
"///////#ZREERRRRRRRREEKt@///////",
"//////3FEEDGRRRRRRREHGEES#//////",
"/////$FWEA$$HRERREEH$$FEWA@/////",
"////@CWEZ5Yx$HWWWWH$lU3SWWq/////",
"////7WEy6YYYz$HWWH$kYYI*ZWJ$////",
"///@SQF*TIIIIk$KJ$jYIIIU@FQy////",
"///4KWH3eYIPIPh$$gPIPIYr4JQG@///",
"///0!WHC$wPPLPLgdPPLPPe$CHQW4///",
"//+y!QKSt$9NBVVVVVVBN9$tSK!!0///",
"//+S!!WHSt$&bnmMMmnb=*tSJW!!tO//",
"//+D~!!QHSt$&iiaaii&$tSJQ~!~yO//",
"//+S!~~!QJA#>aaaaaa<#AJQ~~~~tO//",
"//+C~!~~~K$-aaaaaaaa<$K~~~~~0o//",
"//+q~~~~R$:ssssasssss<$R~~~Q7///",
"///4Q~~K$-bssss%%pssss1$K~~K#///",
"///+F^~*:bbbbb#$$@ubbbb2$!^C+///",
"///O8~!y&bbbn%*tt$@cbbb,8W!3X///",
"////+DWF8=nn%*ySAy*#vn&4DWy+////",
"////o3JHC4;&$yDKKDy$##4CFD@X////",
"/////O8HGC4$yDR~~RDy$7CFD$O/////",
"//////O$DFCyDE~^^~RDCZFC#O//////",
"///////O@8AFR~^^^^^RFC4+o///////",
"////////X+#8CHW^~WGt4@+.////////",
"//////////X+@@@@#@@@+.//////////",
"//////////// .XOOX. ////////////",
"////////////////////////////////",
"////////////////////////////////"
};
