/* XPM */
static char *save_xpm[] = {
/* columns rows colors chars-per-pixel */
"32 32 46 1",
"  c gray15",
". c #2D2D2D",
"X c #333333",
"o c #393939",
"O c #525252",
"+ c #5C5D5D",
"@ c #5F5E61",
"# c #605F60",
"$ c #5F6160",
"% c #636363",
"& c #6B6B6B",
"* c #737373",
"= c #787877",
"- c #777878",
"; c #7C7C7C",
": c #FF6600",
"> c #FF6D0C",
", c #7F817F",
"< c #7E7E80",
"1 c #838383",
"2 c #878788",
"3 c #888788",
"4 c #878988",
"5 c #8C8C8C",
"6 c #8F9090",
"7 c #939393",
"8 c #989597",
"9 c #989897",
"0 c #989799",
"q c #9C9C9C",
"w c #A1A19F",
"e c #9E9FA2",
"r c #9FA0A0",
"t c #A4A4A4",
"y c #ACACAC",
"u c #B4B4B4",
"i c #BCBCBC",
"p c gray77",
"a c #CBCBCB",
"s c #D4D4D4",
"d c #DDDDDD",
"f c #E3E3E3",
"g c gray91",
"h c gray96",
"j c #FEFEFE",
"k c None",
/* pixels */
"kkkkkkkkkkkkkkkkkkkkkkkkkkkkkkkk",
"kkkkkkkkkkkkkkkkkkkkkkkkkkkkkkkk",
"kkXXXXXXXXXXXXXXXXXXXXXXXXXXXXkk",
"kkXttt>::::::::::::::::::>554Xkk",
"kkXtXX>::::::::::::::::::>XX1Xkk",
"kkXtXX>::::::::::::::::::>XX1Xkk",
"kkXtttjjjjjjjjjjjjjjjjjjjj211Xkk",
"kkXtttjjjjjjjjjjjjjjjjjjjh1<;Xkk",
"kkXtttjj::::::::::::::::jj<<;Xkk",
"kkXtttjjjjjjjjjjjjjjjjjjjh;;;Xkk",
"kkXtttjjjjjjjjjjjjjjjjjjjh;;;Xkk",
"kkXttqjj::::::::::::::::jj;;*Xkk",
"kkXtrtjjjjjjjjjjjjjjjjjjjh;**Xkk",
"kkXtrrjjjjjjjjjjjjjjjjjjjj***Xkk",
"kkXwerjj::::::::::::::::jj**&Xkk",
"kkXrqehjjjjjjjjjjjjjjjjjjh*&&Xkk",
"kkXrqqhjhjhjjjhjjjhjjhjhjh&&&Xkk",
"kkXqq9q99776353211;;;-***&&&%Xkk",
"kkX0q887776533511,;;;***&&&&%Xkk",
"kkX8877%oXXXXXXXXoXXXXoO&&&%%Xkk",
"kkX7766odffdssapiuyyqq7X&%%%%Xkk",
"kkX5555XfgXXXXaaiiyywq7X&&%%%Xkk",
"kkX5334offX11Xapiuytqq5o%%%%%Xkk",
"kkX2221XfgX,;Xapiuytq85X%%%#+Xkk",
"kkX1111odfX,;Xppuutrq85X%%$$@Xkk",
"kkX111,offX;;Xpiuytr985o%%+++Xkk",
"kkX11,,odfX;=Xiuyyrq975X+#+++Xkk",
"kk.+11,odfXXXXiuytrq865X#++++Xkk",
"kkk O,;osdssaiyytqq7772X+++++Xkk",
"kkkk XXXXXXXXXXXXXXXXXXXXXXXX.kk",
"kkkkkkkkkkkkkkkkkkkkkkkkkkkkkkkk",
"kkkkkkkkkkkkkkkkkkkkkkkkkkkkkkkk"
};
