/* XPM */
static char *subfold_xpm[] = {
/* columns rows colors chars-per-pixel */
"32 32 133 2",
"   c black",
".  c #262626",
"X  c #2C2C2C",
"o  c #333333",
"O  c #363738",
"+  c #3D454B",
"@  c #3E484E",
"#  c #3F4A50",
"$  c #53564C",
"%  c #404B51",
"&  c #465052",
"*  c #4E5557",
"=  c #47555D",
"-  c #5E6566",
";  c #54656F",
":  c #586973",
">  c #686C6F",
",  c #636F71",
"<  c gray46",
"1  c #7A7B7D",
"2  c #A09E71",
"3  c #237C8D",
"4  c #5C7788",
"5  c #5E7A8B",
"6  c #627886",
"7  c #617D8F",
"8  c #617E90",
"9  c #7E8384",
"0  c #648194",
"q  c #6C8493",
"w  c #68879A",
"e  c #7693A5",
"r  c #57A4B3",
"t  c #858A8A",
"y  c #8F8F8A",
"u  c #8D928E",
"i  c #969B92",
"p  c #9FA497",
"a  c #BEBB84",
"s  c #BEBC8B",
"d  c #AAAE9C",
"f  c #BEBC93",
"g  c #BEBD9D",
"h  c #99AEB2",
"j  c #9DB0B3",
"k  c #B6BAA1",
"l  c #BEBDA2",
"z  c #BEBEAA",
"x  c #B2B2B0",
"c  c #BBBBB4",
"v  c #BFBFBA",
"b  c #D3D08D",
"n  c #C1C09E",
"m  c #C1C2A5",
"M  c #C5C7AB",
"N  c #C7C9AD",
"B  c #CCCEAE",
"V  c #C2C2B3",
"C  c #C7C9B4",
"Z  c #C5C7BC",
"A  c #C6C9BC",
"S  c #C8CABB",
"D  c #D7D8B1",
"F  c #EFEEA3",
"G  c #EFEFAF",
"H  c #F3F0A0",
"J  c #F9F5A1",
"K  c #F6F4AD",
"L  c #FAF7A8",
"P  c #FFFBAB",
"I  c #E0E2B1",
"U  c #E9E8B1",
"Y  c #F4F5B5",
"T  c #F8F7B1",
"R  c #FFFCB4",
"E  c #F3F4BC",
"W  c #FFFCBC",
"Q  c #84AAC2",
"!  c #8BB5CE",
"~  c #94BBC2",
"^  c #8DB7D0",
"/  c #8EB8D2",
"(  c #91BCD6",
")  c #93BFD9",
"_  c #A8BDC1",
"`  c #9BC9D1",
"'  c #96C3DE",
"]  c #98C4E0",
"[  c #9AC8E4",
"{  c #C9CECF",
"}  c #CCD0D1",
"|  c #D1D3D4",
" . c #DEE7D7",
".. c #DEE9D6",
"X. c #D5E5DD",
"o. c #DDE7D8",
"O. c #DDEADB",
"+. c #EAEEC6",
"@. c #E5EDCE",
"#. c #E8EEC9",
"$. c #ECF0C0",
"%. c #EDF3CE",
"&. c #F4F7C5",
"*. c #FFFDC5",
"=. c #F1F5CB",
"-. c #FFFDCD",
";. c #E1EAD5",
":. c #E1ECDC",
">. c #E6F0D4",
",. c #E9F2D1",
"<. c #FFFDD4",
"1. c #FFFEDB",
"2. c #CBDEE9",
"3. c #CFE3EC",
"4. c #D2E5E4",
"5. c #DCEBE1",
"6. c #D2E5EC",
"7. c #D5E8EB",
"8. c #CAEEF9",
"9. c #D4F4FA",
"0. c #DAF7FF",
"q. c #DBF8FE",
"w. c #E5EDE1",
"e. c gray92",
"r. c #FFFEE3",
"t. c #FFFEED",
"y. c #E2F8FE",
"u. c #EAFAFF",
"i. c #F0F3F5",
"p. c #FDFDF4",
"a. c #F3FCFE",
"s. c #FEFFFD",
"d. c None",
/* pixels */
"d.d.d.d.d.d.d.d.d.d.d.d.d.d.d.d.d.d.d.d.d.d.d.d.d.d.d.d.d.d.d.d.",
"d.d.d.d.d.d.d.d.o o o o o o o o o o o o X d.d.d.d.d.d.d.d.d.d.d.",
"d.d.d.d.d.d.d.d.o s.s.s.s.s.s.s.s.s.e.o > . d.d.d.d.d.d.d.d.d.d.",
"d.d.d.d.d.d.d.d.o s.s.s.s.s.s.s.s.s.| o a.- X d.d.d.d.d.d.d.d.d.",
"d.d.d.d.d.d.d.d.o s.a.s.a.s.s.a.s.s.{ o s.i.1 X d.d.d.d.d.d.d.d.",
"d.d.d.d.d.d.d.d.o s.a.a.s.s.s.s.s.s.} o s.s.s.< d.d.d.d.d.d.d.d.",
"d.d.d.d.d.d.d.d.o s.u.y.3 3 3 3 3 3 ~ o o o o o o d.d.d.d.d.d.d.",
"d.o o o o o o o o a.u.y.q.y.q.q.q.q.` , & * * - o d.d.d.d.d.d.d.",
"d.o ( ] ' ' ' ' o u.q.0.3 3 3 3 3 3 r r r h h _ o o O O d.d.d.d.",
"d.o ' [ [ [ [ [ o y.0.0.0.0.0.0.0.0.0.0.0.q.9.q.o e u o d.d.d.d.",
"d.o ' [ [ [ [ ] o 0.8.q O O O O O O O O O O O O O O O O o o o d.",
"d.o ) ( q : : : : ; = o x p.p.p.p.p.p.p.i.p.p.p.p.p.a.6 3.2.o d.",
"d.o ! w + y c c c c c V s.p.p.s.s.p.s.p.p.s.p.s.p.s.p.9 6.3.O d.",
"d.o ! 5 + Z p.p.p.p.p.p.p.p.p.p.p.p.p.p.p.p.p.p.p.p.p.t 7.6.o d.",
"d.o ! 5 + z t.t.t.t.t.t.p.t.p.t.t.t.t.p.p.t.t.p.t.t.t.u 7.4.o d.",
"d.o ! 5 + z t.t.t.t.t.t.V S S S Z Z S S Z M t.r.r.1.r.i 5.X.o d.",
"d.o ! 5 + z r.r.r.r.r.r.S w.:.:.O.5.w.5.w.C 1.1.1.1.1.p O.O.o d.",
"d.o ! 5 + l <.<.1.1.1.r.C :.O. .o.o.o. .;.N 1.<.<.<.<.d :...o d.",
"d.o ^ 5 + g -.<.<.1.<.1.C ;.;.;. . . .;.;.M -.-.-.<.-.k ,.;.o d.",
"d.o ^ 5 + f *.-.<.-.<.<.m N N M M M M M M n -.-.-.-.-.m ,.@.o d.",
"d.o ^ 8 @ f *.-.-.-.-.-.-.<.-.<.-.-.-.-.-.*.-.-.-.-.-.B %.#.o d.",
"d.o / 0 # s R R W *.*.*.*.*.*.*.*.*.*.*.*.W *.*.*.*.*.D %.$.o d.",
"d.o / 0 % s P R R W W W W *.*.W W *.W *.R *.W *.W *.*.I &.$.o d.",
"d.o / 0 # a P R R R R R R R R R R R R R R R R W R R R U E E o d.",
"d.o ^ 8 @ a P P P P R R R R R P R R R P R R R R R R R G W Y o d.",
"d.o ! 5 + a P P P P P P P P P P P P P P P P P P R R P K T T o d.",
"d.o Q 5 $ 2 P P P P P P P P P P P P P P P P P P P P P L P F o d.",
"d.o 6 = $ b J J J J J J J J J J J J J J J J J J J J J J H 2 o d.",
"d.o o o O o o o o o o o o o o o o o o o o o o o o o o o o o . d.",
"d.d.d.d.                                                    d.d.",
"d.d.d.d.d.                                                d.d.d.",
"d.d.d.d.d.d.d.d.d.d.d.d.d.d.d.d.d.d.d.d.d.d.d.d.d.d.d.d.d.d.d.d."
};
